<svg width="556" height="667" viewBox="0 0 556 667" fill="none" xmlns="http://www.w3.org/2000/svg">
<mask id="mask0_2344_8995" style="mask-type:alpha" maskUnits="userSpaceOnUse" x="0" y="0" width="556" height="667">
<path d="M41.149 430.895C31.1353 433.967 24.6052 427.406 16.1589 425.632C13.4985 425.074 8.20556 426.453 2.90335 428.268L5.34981 653.669C5.45678 663.37 12.7264 669.038 21.5866 666.32L471.474 528.375C480.339 525.657 487.437 515.588 487.33 505.882L484.883 280.527C490.548 278.526 496.408 276.906 499.255 277.505C507.701 279.279 514.231 285.84 524.245 282.768C541.993 277.328 556.207 257.163 555.998 237.734C555.788 218.304 541.231 206.965 523.482 212.405C513.468 215.477 507.124 225.982 498.771 232.906C495.953 235.243 490.102 237.212 484.427 238.687L481.981 13.3311C481.874 3.62992 474.604 -2.03743 465.744 0.680541L260.218 63.6975C260.446 65.1994 260.767 66.4563 261.209 67.3184C265.283 75.2953 273.153 79.9508 273.269 90.918C273.479 110.348 259.265 130.512 241.517 135.953C223.768 141.393 209.21 130.054 209.001 110.624C208.88 99.6618 216.601 90.2238 220.47 79.8102C220.889 78.6803 221.182 77.2374 221.377 75.6039L15.8612 138.63C6.99628 141.348 -0.101231 151.417 0.00109261 161.118L2.44755 386.519C7.75906 385.08 13.0427 383.215 15.6752 381.033C24.0285 374.108 30.3725 363.6 40.3862 360.532C58.1347 355.092 72.6925 366.431 72.9018 385.861C73.1111 405.29 58.8974 425.455 41.149 430.895Z" fill="#8DD0EB"/>
</mask>
<g mask="url(#mask0_2344_8995)">
<rect width="556" height="667" fill="black"/>
</g>
</svg>
