<svg width="182" height="180" viewBox="0 0 182 180" fill="none" xmlns="http://www.w3.org/2000/svg">
<mask id="mask0_2110_4123" style="mask-type:alpha" maskUnits="userSpaceOnUse" x="0" y="0" width="182" height="180">
<rect width="182" height="180" fill="white"/>
</mask>
<g mask="url(#mask0_2110_4123)">
<path d="M93.6682 51.0552L172.919 50.0165C172.919 50.0165 187.057 71.8917 179.653 92.4658L141.438 107.438L100.972 123.293C100.972 123.293 49.8765 178.581 47.4838 178.434C45.091 178.287 13.6412 178.031 7.18722 154.157L31.9634 91.7751L1.11671 24.3147C1.11671 24.3147 18.1722 4.83208 39.9032 -0.184357L93.6682 51.0552Z" fill="#FCFF70"/>
<path d="M93.1122 51.5178C93.4115 51.6728 93.4393 51.4153 92.8015 50.8583L92.0861 50.6782L93.1137 51.5277L93.1122 51.5178Z" fill="#202020"/>
<path d="M89.4908 47.1608C88.633 46.5881 87.5649 45.9881 87.7846 46.6518C88.7623 47.1144 88.8253 47.3676 89.9178 47.8322C90.5667 48.3874 90.9048 48.9312 90.696 48.9137C90.9826 49.0606 91.5925 49.8751 92.0879 50.0395C91.5038 49.0994 90.5021 48.1243 89.2673 47.2672C89.099 47.0002 89.3967 47.1454 89.5019 47.1591L89.4908 47.1608Z" fill="#202020"/>
<path d="M25.3266 4.9025L25.8623 4.67578C25.7109 4.73018 25.5291 4.80963 25.3266 4.9025Z" fill="#202020"/>
<path d="M9.1508 43.6444C8.98288 43.3066 8.88132 43.1708 8.8463 43.1662C9.00952 43.4745 9.15375 43.7351 9.1508 43.6444Z" fill="#202020"/>
<path d="M12.2967 51.4976C12.2239 51.3269 12.1781 51.1823 12.1085 51.0314C12.1605 51.2155 12.2126 51.3996 12.2967 51.4976Z" fill="#202020"/>
<path d="M25.3259 4.90234C24.8646 5.09702 24.4017 5.28182 23.9674 5.50258C23.932 5.63983 24.6634 5.19981 25.3259 4.90234Z" fill="#202020"/>
<path d="M80.5579 39.841C80.7819 40.0282 80.9759 40.1695 81.1666 40.2911C80.9823 40.1381 80.8091 39.9834 80.636 39.8286C80.6137 39.8321 80.5913 39.8356 80.5579 39.841Z" fill="#202020"/>
<path d="M46.5632 5.0666L46.8602 5.3536C46.9843 5.41493 47.1052 5.4565 47.2261 5.49806L46.5632 5.0666Z" fill="#202020"/>
<path d="M59.1707 17.0094C58.8976 16.7287 58.5597 16.833 58.3511 16.8154C58.6025 16.8869 58.8681 17.0473 59.1318 17.2687C59.1845 17.2401 59.1942 17.1576 59.1707 17.0094Z" fill="#202020"/>
<path d="M78.6878 36.3501L79.0692 36.6643C78.9643 36.5796 78.7943 36.4446 78.6878 36.3501Z" fill="#202020"/>
<path d="M35.3723 0.260542C35.3723 0.260542 35.2514 0.218972 35.1717 0.221478C35.1764 0.251108 35.2592 0.268355 35.3723 0.260542Z" fill="#202020"/>
<path d="M115.387 52.0943C115.387 52.0943 115.382 52.0647 115.379 52.0449C115.269 52.0725 115.239 52.0975 115.387 52.0943Z" fill="#202020"/>
<path d="M93.669 50.9832L93.9748 50.965C93.9748 50.965 94.0388 50.8638 94.0405 50.8027L93.669 50.9832Z" fill="#202020"/>
<path d="M18.3679 65.7435C18.3679 65.7435 18.3616 65.704 18.3458 65.6761C18.1397 65.314 18.2426 65.5305 18.3679 65.7435Z" fill="#202020"/>
<path d="M47.3801 179.584C46.9991 179.563 46.784 179.506 46.7697 179.488C46.7188 179.456 46.7618 179.439 46.8273 179.418C46.915 179.394 47.1334 179.4 47.3456 179.367C47.4572 179.349 47.5689 179.331 47.6805 179.313C47.7812 179.227 47.9103 179.247 48.0126 179.17C48.4277 178.972 48.7315 178.651 48.7237 178.601C48.719 178.572 48.6647 178.59 48.4923 178.658C48.3215 178.736 48.0596 178.889 47.6146 178.97C47.6418 178.925 47.6447 179.015 47.5889 179.024C47.5346 179.043 47.4357 179.069 47.3033 179.1C47.182 179.129 47.013 179.146 46.8678 179.169C46.7562 179.187 46.6477 179.224 46.5472 179.24C46.3605 179.29 46.2312 179.341 46.2868 179.403C46.3139 179.429 46.3998 179.466 46.5305 179.496C46.6006 179.505 46.6835 179.522 46.7902 179.546C46.8954 179.559 47.1536 179.6 47.3705 179.595L47.3801 179.584Z" fill="#202020"/>
<path d="M80.2633 39.5023C80.0885 39.3376 79.9154 39.1829 79.7518 39.0164C79.9821 39.2432 80.1441 39.3997 80.2633 39.5023Z" fill="#202020"/>
<path d="M47.6163 178.979L47.2469 178.957C47.3966 178.964 47.4889 178.969 47.6163 178.979Z" fill="#202020"/>
<path d="M28.247 97.568C28.33 97.5144 28.4243 97.3881 28.5186 97.2617C28.4851 97.267 28.4149 97.3288 28.247 97.568Z" fill="#202020"/>
<path d="M22.7588 73.7947L22.9928 74.4055C22.9075 74.1558 22.8316 73.9654 22.7588 73.7947Z" fill="#202020"/>
<path d="M23.4551 110.803C23.3013 111.131 23.2151 111.236 23.0625 111.716C23.0913 111.681 23.1185 111.636 23.1568 111.589C23.186 111.412 23.2519 111.179 23.4551 110.803Z" fill="#202020"/>
<path d="M18.0332 124.461C18.0795 124.393 18.1339 124.303 18.1898 124.224C18.2364 124.085 18.2909 123.924 18.3486 123.783L18.0316 124.451L18.0332 124.461Z" fill="#202020"/>
<path d="M164.277 51.3165C163.922 51.2412 163.713 51.1528 163.54 51.069C163.788 51.2625 161.412 51.366 164.277 51.3165Z" fill="#202020"/>
<path d="M80.6868 39.7188C80.5594 39.7087 80.4465 39.6456 80.2638 39.5024C80.3956 39.6132 80.5164 39.7256 80.6356 39.8282C80.704 39.8275 80.7471 39.8105 80.6868 39.7188Z" fill="#202020"/>
<path d="M25.585 112.033L24.6797 114.192C24.9508 113.592 25.2735 112.812 25.585 112.033Z" fill="#202020"/>
<path d="M126.168 112.188L126.7 111.941C126.483 112.016 126.302 112.096 126.168 112.188Z" fill="#202020"/>
<path d="M22.1648 120.637C21.9007 120.992 21.678 121.392 21.468 121.8C21.4597 121.893 21.4323 122.008 21.4433 122.078L22.1536 120.638L22.1648 120.637Z" fill="#202020"/>
<path d="M146.683 51.9604C149.118 51.9387 147.837 51.585 148.362 51.3599C151.269 51.2127 149.696 51.6141 150.686 51.7913C152.497 51.6659 153.906 51.3108 155.257 51.3092C155.357 51.3642 155.623 51.3827 155.306 51.4736C157.236 51.1573 161.002 51.3799 163.24 50.9844C163.406 51.0189 163.491 51.046 163.529 51.0703C163.169 50.8945 163.115 50.7005 163.197 50.566C164.292 50.5442 165.227 50.3047 165.632 50.5443C164.968 50.5483 164.903 50.6397 164.584 50.7207L165.732 50.5993C166.758 50.9327 164.163 50.7369 164.159 51.0007C166.391 50.8592 168.996 50.5372 170.702 50.6109C171.053 50.95 166.699 50.78 168.974 51.047L166.337 50.9489C168.341 51.4612 164.731 50.9302 166.57 51.4789C168.314 51.506 169.279 51.4542 170.253 51.3908C170.741 51.364 171.219 51.3489 171.798 51.3178C171.854 51.309 171.923 51.3082 171.991 51.3075C172.037 51.3103 172.083 51.4549 172.147 51.5663C172.217 51.5754 172.295 51.6339 172.352 51.635C172.397 51.6279 172.426 51.5929 172.442 51.5499C172.485 51.462 172.53 51.384 172.787 51.6368C174.039 53.4633 174.189 54.3406 174.292 55.0633C174.407 55.7843 174.466 56.3723 175.334 57.7331C175.919 58.3896 176.48 58.5335 177.092 60.7347L176.394 60.157C176.943 61.5278 177.173 61.8963 177.45 62.2676C177.694 62.6541 177.996 63.0416 178.295 64.5636C178 64.0738 177.425 62.4031 177.528 62.8324C177.865 64.814 178.189 64.1146 178.652 65.5903L178.372 65.9891C179.26 68.987 180.303 72.3147 180.623 75.7773C180.491 75.5957 180.309 75.0272 180.277 75.8322C180.882 80.1508 180.292 85.1651 178.983 89.1797L178.849 90.7906C178.735 91.1529 178.505 91.4325 178.566 91.0278C178.509 91.1686 178.48 91.2745 178.446 91.3507C178.439 91.3821 178.431 91.4036 178.435 91.4234C178.439 91.453 178.476 91.4674 178.511 91.472C178.594 91.4892 178.723 91.4383 178.732 91.6394C178.738 91.7498 178.601 91.7513 178.545 91.7602C178.478 91.7708 178.421 91.7698 178.383 91.7455C178.309 91.7166 178.319 91.634 178.354 91.5677C178.425 91.5768 177.826 91.8439 177.422 92.0396C176.973 92.2424 176.504 92.4586 176.003 92.69C175.01 93.1411 173.929 93.6163 172.836 94.0834C170.647 95.0076 168.405 95.8797 166.708 96.3715L167.309 96.0434C164.725 96.9291 164.712 97.7109 162.243 98.3859L162.678 98.1652C157.128 100.2 151.18 102.824 146.799 104.066C146.176 104.762 141.283 106.024 141.184 106.698C137.925 107.66 138.781 107.211 134.278 108.765C133.089 109.207 132.677 109.789 131.244 110.421L131.075 110.154L129.231 111.226L128.017 111.297L126.683 111.904C127.235 111.705 127.902 111.579 127.85 111.688C125.772 112.656 122.557 113.53 122.434 113.408L117.487 115.631C117.542 115.47 118.377 115.105 119.011 114.771C116.443 116.12 118.388 114.668 116.031 115.902C116.388 115.845 115.931 116.141 115.898 116.217C114.584 116.526 111.783 117.629 109.737 118.51L110.047 118.157C108.524 118.733 106.952 119.357 105.34 120.018C103.619 120.716 101.846 121.443 100.039 122.175C99.4138 122.851 98.7709 123.561 98.1168 124.272C99.2518 123.201 99.3286 123.685 98.4953 124.637L97.8698 124.807C97.4819 125.537 98.872 123.909 97.9481 125.301C96.8161 126.463 96.8927 125.863 97.4273 125.12L96.1906 126.633C96.0343 126.658 96.2968 126.292 96.2701 126.124C95.8919 126.842 93.6792 128.408 93.1963 129.477L93.04 129.502C90.0959 132.662 88.8465 134.167 86.4621 136.742C86.6576 136.964 85.6552 137.933 85.136 138.846C83.2862 140.678 81.1363 142.639 79.0141 144.92C77.6335 146.607 78.7796 145.534 78.2464 146.358C77.9197 146.318 75.7975 148.599 76.7482 147.304C74.2086 150.056 73.505 150.816 70.4179 154.373C70.862 154.07 71.3031 153.676 71.1636 153.951C70.6022 154.597 69.7185 155.304 69.703 155.135L69.8343 154.952C66.489 159.046 60.7149 163.344 58.1911 166.701L58.3335 166.516L55.4815 169.824C54.0219 171.23 56.173 168.844 54.9857 169.801C53.4883 171.618 52.1374 172.916 50.8394 174.114C49.6566 175.173 48.5537 176.158 47.2526 177.336C47.1697 177.319 47.1014 177.249 47.0393 177.218C46.8832 177.172 46.5899 177.127 46.3445 177.095C45.8281 177.015 45.2575 176.954 44.6518 176.888C43.4293 176.758 42.0442 176.613 40.6256 176.473C37.7933 176.153 34.8564 175.607 32.974 174.852L33.136 175.08C32.0457 174.989 31.9446 174.641 31.2183 174.392C31.2673 174.556 32.2533 174.855 31.5871 174.768C27.2744 173.63 23.0706 171.735 19.5351 169.147C15.9789 166.573 13.2093 163.255 11.3125 159.668C10.6657 158.333 10.2328 158.058 9.83536 157.645C9.64144 157.433 9.45555 157.199 9.25263 156.785C9.15117 156.579 9.04188 156.323 8.93435 156.006C8.84916 155.685 8.76417 155.294 8.6778 154.821L9.34965 155.737C9.1487 155.192 8.93657 154.649 8.72445 154.105L8.73895 154.052L8.83377 153.784L9.04104 153.214L9.46518 152.064C10.0705 150.54 10.6743 149.007 11.2669 147.475C12.4888 144.426 13.7138 141.396 14.7043 138.404C14.6491 138.778 14.7463 138.813 14.5182 139.396C15.2709 138.223 16.355 134.811 16.1592 134.731C16.5412 133.82 16.4322 134.576 16.759 134.039C17.4033 132.833 17.6784 130.815 18.1919 130.227C18.2783 130.122 18.1366 130.6 18.0706 130.834C18.2675 129.982 19.6006 127.057 19.0008 127.75C20.0193 125.583 20.5465 123.495 21.4187 121.777C21.5417 120.532 23.0809 118.041 22.7507 117.546C23.1644 117.845 24.6729 113.789 25.0022 112.329C24.9577 112.842 25.6289 111.156 25.6224 111.765C26.2503 110.167 26.736 108.682 26.3798 108.891C28.1159 106.125 28.2622 102.861 29.6485 101.427C30.2208 99.7664 30.7754 98.1394 31.3059 96.577C31.5824 95.794 31.8492 95.0227 32.1176 94.2612C32.2526 93.8854 32.3875 93.5096 32.5114 93.1356C32.6865 92.6522 32.8616 92.1688 33.0368 91.6854C32.2933 90.1732 31.6322 88.8201 30.9743 87.4867C31.1896 87.4728 31.5655 88.1827 31.9713 89.0093C32.1742 89.4226 32.3818 89.8655 32.572 90.2707C32.6878 90.4954 32.7908 90.7119 32.8907 90.9087C33.0397 91.1989 33.1729 91.4613 33.2871 91.6761C33.1183 92.199 33.0744 92.4996 33.2036 92.4487C33.3065 92.159 33.4109 91.8792 33.4912 91.6639C33.3058 91.2884 33.1203 90.9128 32.9379 90.557C32.8237 90.3422 32.7111 90.1373 32.6 89.9423C32.3764 89.5424 32.1654 89.1506 31.9576 88.7786C31.5404 88.0246 31.1534 87.3165 30.7551 86.6102C29.9795 85.1841 29.2469 83.741 28.4582 81.8715C28.0673 80.8502 28.924 82.3545 29.1559 82.662C27.1927 78.8728 25.7825 75.1781 23.9599 71.8424C24.0046 71.8353 24.2204 72.1858 24.422 72.5184C24.0986 71.8508 23.768 70.9211 23.5874 71.0814L23.9523 71.7221C24.1434 72.9271 22.0666 69.2875 21.8515 69.2305C22.9921 70.143 20.4566 65.7764 22.0722 67.3021C21.8326 66.8743 21.4754 66.3539 21.3745 66.5116C21.1181 65.8334 21.1028 65.5928 21.5762 66.1961C20.3521 63.8186 20.5136 64.7649 19.5122 62.5647C19.6207 62.5272 19.8618 62.9648 20.0845 63.1421C19.3715 62.1111 18.657 61.0702 17.8986 59.1756C18.0147 59.2584 17.9995 59.0178 18.2467 59.5659C16.7585 56.3898 15.2193 54.3356 13.8167 50.7612C14.7422 51.6168 13.4248 49.5172 13.7255 49.1759L12.7469 47.3365L12.9009 48.1626C12.1577 46.5086 11.2001 45.162 10.6813 43.6951L11.4034 44.8563L9.91016 41.7925L10.5635 43.6024C9.60182 42.0135 10.1528 43.9714 9.25981 41.7336C9.49936 42.1614 8.50554 40.0814 8.34397 39.135C7.84391 38.3638 7.33112 37.5845 6.87868 36.3198C6.85577 35.9589 7.43008 36.4045 7.41481 36.1639C6.72317 35.4838 5.56014 32.3372 4.74471 31.454C4.97663 31.7615 5.19523 31.6965 5.1876 31.5762L4.61681 31.0086C4.35279 30.2101 4.34358 30.0799 4.56023 30.1468C3.56386 27.8343 4.39819 31.0736 3.36815 28.2603C3.49195 28.4634 3.48432 28.3431 3.72543 28.7807C3.16487 27.4116 2.48794 26.0306 1.90132 24.8581L1.73327 24.5202C1.71271 24.4627 1.6698 24.4088 1.6604 24.3495L1.78519 24.1981C1.9899 23.9732 2.10352 23.8236 2.38815 23.5253C2.8967 22.9789 3.40993 22.4621 3.95981 21.9598C4.87285 21.5821 2.2326 23.8436 3.1954 23.3467C6.06271 20.2796 9.18586 16.9492 12.5284 14.4243L11.8909 14.8798C11.9409 14.1125 14.5233 13.146 16.0611 11.7276C15.6664 12.0534 15.7118 12.3398 15.7839 12.217C17.001 11.4469 18.1244 10.5194 19.5013 9.60236C20.1819 9.12991 20.8912 8.62252 21.6532 8.08652C22.4438 7.58648 23.2952 7.03631 24.2215 6.45399L23.8251 6.84088C24.5867 6.44669 25.5941 5.94264 26.6143 5.44668C27.633 4.94085 28.658 4.40362 29.5343 4.08238C29.9721 3.73956 30.9505 3.34135 30.2759 3.41799C30.978 3.22562 31.6499 2.98742 32.3137 2.77074C32.9919 2.57204 33.6446 2.35713 34.2957 2.13234C34.9341 1.89945 35.5725 1.66656 36.1998 1.43544C36.8429 1.23218 37.4748 1.03069 38.1068 0.829197L39.01 0.534047C39.2286 0.468995 39.4729 0.349246 39.6882 0.335348L40.1908 0.761871L40.8476 1.36644C41.7349 2.19769 42.5568 3.04945 43.2892 3.98628C42.8725 3.59674 42.2042 3.13575 42.5397 3.44703L45.579 6.15432C45.5418 5.77547 45.3108 5.6906 44.8425 4.97513C45.3297 5.23199 46.2444 5.94751 46.9727 6.64199C45.5202 5.49538 46.6722 6.91241 47.1391 7.54709C47.106 7.41059 47.3671 7.5413 47.3738 7.43899C48.5663 9.18371 48.0246 7.35602 49.8838 9.55185L49.675 9.53435C50.5085 10.2425 51.3662 10.8152 52.185 11.6472C52.3127 12.1636 51.2479 10.9352 51.0132 11.0433C52.209 12.1598 53.7837 12.9225 54.6285 14.1351C54.0574 13.7093 53.3402 13.0131 52.7691 12.5873C53.6789 13.9212 53.8732 13.9917 54.7094 14.8614L54.6268 14.7733L56.5152 16.7923L56.0735 16.2448C58.1436 17.1719 59.2066 19.0384 61.5873 20.6251C59.2814 19.0772 61.052 20.4973 60.65 20.5611C61.0917 21.1087 61.791 21.909 61.4932 21.7639C62.6391 22.4933 62.9092 23.4022 64.5485 24.4281C64.5227 24.5537 65.5503 25.4032 65.1326 25.3682C66.4321 26.4884 64.9902 24.9757 65.1863 24.985C67.3582 26.5542 69.3046 29.5158 72.4136 31.7969C74.9236 33.9098 75.6278 34.0917 77.9533 36.0516C78.5632 36.8661 77.0549 35.7283 77.0549 35.7283C78.1197 36.9567 79.0421 37.7925 80.2527 38.7851C79.9533 38.6301 80.1343 38.9051 80.3803 39.3015C81.3027 40.1373 81.2787 39.6247 82.3434 40.8531C82.0504 40.7375 81.641 40.6101 81.1174 40.2679C82.2516 41.2119 83.4545 42.0842 84.6172 43.0641C84.7708 43.4549 83.7447 42.6153 83.264 42.327C84.5635 43.4473 86.5801 45.2638 87.1918 45.4401L86.4782 44.6218C86.9346 45.0456 86.5154 45.0007 86.1399 44.7261C84.9051 43.869 84.6981 43.2133 84.7239 43.0877L85.5558 43.786C85.2339 42.6221 82.345 40.8629 80.7995 39.3463L81.803 39.6833L79.903 38.3849C79.6554 37.9787 79.6071 37.6016 80.439 38.2999C79.4794 37.0852 79.3205 37.4547 78.5423 36.3733C78.4645 36.2438 78.5266 36.2745 78.6428 36.3573L77.4369 35.3943C77.7235 35.5413 77.5018 35.0094 78.1264 35.7001C76.3481 33.6534 74.6809 32.8851 74.2005 31.9488L74.3834 32.0919C71.5238 29.5789 73.8622 32.0531 71.5073 30.3409L70.7568 28.4957L70.2355 28.4569C69.9621 28.1763 69.4183 27.6348 69.6256 27.6424C68.4019 26.7835 69.6902 27.9055 68.9214 27.4605C67.7919 25.969 65.06 23.9723 65.1654 23.338C64.4871 23.0305 66.3207 24.7039 64.7331 23.4268C64.7608 22.663 62.9788 21.8927 61.9399 20.5387C62.5516 20.7151 63.6037 21.9353 62.5648 20.5814C61.4371 20.1831 60.2309 18.2077 59.1079 17.262C58.7518 17.4703 56.6967 15.1942 54.8421 13.6051C55.0509 13.6226 51.6977 10.307 50.1653 8.65669L50.269 8.6605C49.6441 8.61787 48.0177 6.9521 46.7198 5.84172C46.9545 5.73362 47.2411 5.88054 47.9952 6.44942L46.836 5.34742C46.465 5.17339 46.0513 4.87451 45.2672 4.18889L45.7851 4.27886C45.0059 3.55196 44.1644 2.86531 43.2896 2.11307C42.8522 1.73695 42.4005 1.34285 41.9553 0.917349C41.7375 0.698774 41.5085 0.481971 41.278 0.25529C40.9775 -0.0514228 40.677 -0.358135 40.3622 -0.68283C40.2361 -0.612194 40.6504 0.0510938 40.6703 0.321302C40.6923 0.459573 40.6219 0.521354 40.4388 0.449156C40.3416 0.413942 40.227 0.340994 40.0743 0.243729C39.9979 0.195097 39.9183 0.126711 39.8165 0.0618678C39.6841 0.0929979 39.534 0.1573 39.3824 0.211725C39.3379 0.147903 39.2792 0.066099 39.3432 -0.0351875C39.3689 -0.0898835 39.4296 -0.140016 39.5446 -0.208881C39.5973 -0.237489 39.6708 -0.279517 39.7458 -0.311668C39.7904 -0.318753 39.832 -0.34559 39.8862 -0.364322C39.9086 -0.367864 39.9405 -0.383054 39.9628 -0.386596L40.0153 -0.344298C39.9789 -0.429645 39.8655 -0.350904 39.7458 -0.311668C39.6261 -0.272433 39.4856 -0.219778 39.3452 -0.167124C39.0627 -0.071692 38.7467 0.0290535 38.4788 0.0715606C38.8396 -0.107176 39.3217 -0.315272 39.8245 -0.536786C38.2181 -0.20096 39.0102 -0.113991 37.9428 0.156574C37.9115 -0.0409563 37.1311 0.234713 37.2273 0.0473296C37.4874 -0.0445601 38.1732 -0.122969 38.5436 -0.313353C37.355 -0.0134295 35.8731 0.241883 35.3516 0.273972C35.4886 0.343378 35.437 0.523678 34.6071 0.847708C32.4317 1.63827 33.7667 0.889882 32.4519 1.26044C31.96 1.55109 30.5461 2.01838 30.6489 2.30582C30.028 2.57644 29.856 2.50247 29.5753 2.53687C28.4912 3.06321 24.5764 5.01058 25.9405 4.66256L26.2199 4.54738C26.2199 4.54738 26.116 4.61447 26.0522 4.64485C24.3753 5.61959 22.6586 6.63104 20.8861 7.58044C19.1709 8.60177 17.4287 9.59701 15.9315 10.766L15.8727 10.6842C14.0895 12.0707 11.8702 13.739 10.7971 14.9116C10.2794 15.3278 9.44586 15.7739 9.57574 15.5103C8.34318 16.688 8.24542 16.8655 6.29276 18.4104C7.42994 17.1366 5.7196 18.6937 7.50008 17.1457C5.78053 18.5727 5.26807 18.8059 3.77221 20.6328C4.14737 19.8949 2.31068 21.5936 1.64992 22.4072C2.05424 22.0697 2.47128 21.7403 2.88834 21.4109C1.98644 22.3639 1.19014 23.1889 0.385795 24.0353C0.431054 23.8155 0.495499 23.5724 0.579154 23.306L0.104311 23.7762L-0.141928 24.0279C-0.209121 24.1094 -0.356032 24.1935 -0.271805 24.2915C-0.118248 24.6823 0.0449024 25.0614 0.209625 25.4504C0.331651 25.7145 0.44094 25.9706 0.561399 26.2249C0.664425 26.4414 0.780186 26.666 0.881646 26.8727C1.31452 27.7254 1.77462 28.5333 2.21729 29.3034C3.09302 30.8554 3.88296 32.2995 4.19259 33.8906C4.89793 34.8014 3.41895 31.7555 4.11666 32.5459C4.86741 34.3202 5.2109 36.3414 5.45808 36.8894C6.36629 39.3677 6.99569 38.9338 8.01046 41.5065C7.98599 41.1358 8.18013 40.7 9.1587 42.5394C9.92062 44.3119 9.62558 44.9055 9.01956 43.8271C8.81664 43.4138 8.75828 43.1902 8.81568 43.1912C8.5111 42.6421 8.12094 41.9143 8.2974 42.6659L8.52011 42.8432C8.79176 43.762 9.90742 46.177 9.45122 45.6824C10.181 46.9639 9.91702 46.1654 9.52921 45.1638C10.3789 47.4894 11.1296 48.6865 12.0764 51.0474C11.9787 50.6477 11.9623 50.2555 12.135 50.6229C13.5427 54.0852 13.0558 52.026 14.1623 54.3109C14.5761 55.6931 13.4982 54.0213 14.7148 56.2786C15.2336 57.7454 14.5191 56.7045 14.1618 56.1841C15.3631 58.2008 15.8055 60.1961 16.3202 61.4206L15.7142 60.3422C16.0791 60.983 16.3263 61.531 16.5751 62.0889L16.5277 61.3573C16.7825 62.0256 17.0313 62.5836 16.9212 62.6111C17.3962 63.2243 17.1 61.9348 17.9272 63.1806C18.1989 64.0994 19.2783 65.781 19.0826 66.2069C17.9425 63.4211 18.8885 66.6427 17.7789 64.3381C18.0184 64.7659 18.2656 65.3139 18.522 65.9921C18.5392 66.1007 18.409 65.929 18.3122 65.752C19.2165 68.4942 19.2356 66.8104 20.4684 69.5309C20.1279 69.2609 20.4072 70.3 20.6579 70.7259C20.1636 69.6298 20.7267 70.0771 21.3251 71.0352C21.9769 72.8353 22.2941 72.8863 22.7028 73.8036L22.2929 72.7346C22.6349 73.0145 23.0151 73.8958 23.6272 75.0846C23.5263 75.2423 23.0227 74.0161 23.1537 74.4813C24.091 75.6995 24.2083 77.6654 25.2938 79.4575C25.5654 80.3763 24.9854 79.6785 25.2495 80.477C26.4507 82.4937 26.0399 82.8626 27.2488 84.9996C27.2015 84.268 27.0949 84.1735 28.049 85.6422L26.2112 82.066L27.6463 84.2582C27.1504 83.1522 26.4298 82.0009 26.1734 81.3227C26.8864 82.3537 26.7702 82.2709 26.7417 81.6578C27.0495 83.31 28.3231 84.5558 28.8664 86.3934L28.2217 86.5868C28.5649 87.5955 28.9786 88.4715 29.4512 89.3584C29.6923 89.796 29.935 90.2435 30.1793 90.7009C30.3077 90.9337 30.4362 91.1664 30.5663 91.409L30.6646 91.5959L30.7122 91.6795L30.8058 91.8368C30.7849 91.9211 30.7527 92.0072 30.7206 92.0933C30.6499 92.2969 30.568 92.5023 30.4861 92.7076C30.3239 93.1282 30.1409 93.5623 29.9388 94.0196L30.4951 92.9087C30.559 93.4554 29.6647 95.1059 29.3026 96.2872C29.1389 96.1208 28.7798 96.8157 28.4516 97.2727C28.6319 97.2543 27.408 99.8582 27.697 100.308L26.7903 101.809C25.5452 104.639 26.0872 105.242 24.9299 107.977C25.0281 107.08 24.3854 108.296 24.9551 106.403C24.5858 107.322 24.2232 108.139 24.357 108.189C24.0128 108.689 23.6289 110.816 23.0894 111.6C23.0293 112.014 23.1962 112.2 22.7756 113.229C22.6892 113.334 22.6784 113.194 22.6784 113.194C22.7756 113.229 22.1747 114.853 22.7622 114.011C20.9834 116.652 19.6692 121.933 18.1338 124.232C17.4138 126.26 16.5173 128.69 15.8107 130.514C15.7887 130.375 15.7135 130.478 15.8659 130.14C14.676 132.597 15.8516 131.854 14.4981 134.65C13.5807 136.011 14.9138 133.086 14.433 133.952C13.5827 134.148 13.1526 137.425 11.9964 139.229L12.138 138.751C11.3194 140.156 10.9782 142.408 9.97187 144.795C9.97187 144.795 9.9515 144.666 9.87315 144.75C9.5765 146.488 8.45001 149.633 7.63032 151.97C7.64211 151.179 7.90441 150.884 7.45699 151.238C7.08418 152.28 8.01234 151.059 7.27944 153.15C7.16895 153.319 7.06964 153.487 6.9094 153.775C6.8516 153.916 6.71407 154.059 6.71524 154.211C6.74031 154.369 6.76381 154.517 6.78887 154.675C6.86388 155.22 6.87542 155.654 6.7618 155.804L6.44099 154.791C6.39379 154.566 6.25257 154.325 6.2612 154.091L6.52781 153.39C6.33407 153.684 5.92936 154.164 6.19594 154.618C6.27017 154.869 6.30796 155.035 6.36495 155.178C6.42508 155.341 6.48366 155.493 6.54379 155.656C6.67365 155.969 6.7939 156.295 6.9222 156.598C7.06165 156.9 7.19798 157.182 7.27378 157.444L7.05555 157.367C7.64922 158.872 8.17985 159.548 8.64818 160.263C8.87676 160.622 9.17234 160.97 9.47242 161.418C9.78522 161.875 10.1249 162.428 10.6379 163.137L10.5464 162.777C11.9951 164.116 11.2758 164.2 12.7422 165.506L12.7929 166.187C13.6959 167.117 16.321 169.09 18.3041 170.335C16.9901 169.844 14.7626 168.213 13.4343 167.128C14.3262 168.06 16.7265 170.058 17.4657 170.245C16.9993 169.975 16.4103 169.653 16.0638 169.273C17.5253 170.043 19.3127 171.137 21.5828 172.386C21.1357 172.599 22.5937 173.492 24.4328 174.334C26.2624 175.188 28.4604 175.983 29.2815 176.542C33.9194 177.709 38.4437 179.027 44.0946 179.437C42.1899 178.686 45.7381 179.551 45.4625 178.896C46.1178 178.913 46.5673 178.933 46.8655 178.936C47.2592 178.965 47.4521 178.955 47.5366 178.982C47.9497 178.916 48.3808 178.676 48.7019 178.463C49.0053 178.283 49.2721 178.089 49.5405 177.904C50.0869 177.524 50.5981 177.139 51.1206 176.753C51.9239 176.261 50.3368 177.657 50.5233 177.678C52.6235 175.836 51.5948 177.072 53.0616 175.928C52.6101 176.041 53.4962 175.06 54.6821 174.021L52.8799 175.36C55.3544 172.487 55.6708 173.398 58.1136 170.47L57.4221 171.45C58.724 169.988 62.5098 166.289 63.4313 164.594C63.7316 164.394 64.1883 164.17 63.6268 164.816C66.9476 161.505 70.4074 156.977 73.1565 154.536L73.0408 154.889C73.6006 154.233 73.8447 153.607 74.73 152.91C74.7425 152.989 74.6142 153.262 74.9004 152.974C75.174 152.606 76.2672 151.127 77.1383 150.341L76.6051 151.164C79.9 147.979 81.0572 145.821 83.5827 142.98C83.9486 143.266 86.5242 140.742 87.8112 139.474L87.8253 139.563C91.4968 135.72 93.6591 132.755 96.8502 129.06C97.4814 128.565 98.2599 127.844 99.1296 126.977C99.5518 126.535 100.017 126.077 100.489 125.587C100.892 125.168 101.304 124.738 101.726 124.297C102.968 123.826 104.263 123.328 105.504 122.857C106.855 122.349 108.174 121.867 109.371 121.474C108.615 121.685 109.348 121.113 110.171 120.74C111.328 120.384 113.128 119.248 113.128 119.684L112.727 119.828C113.74 119.86 115.986 118.866 117.788 118.175L117.864 117.576C122.882 116.446 130.029 112.507 132.887 112.125C133.965 111.559 135.367 111.013 136.433 110.448L136.479 110.735C139.66 109.572 141.238 108.988 145.085 107.405L144.385 107.901C146.575 107.058 146.796 106.071 148.809 105.266L149.588 105.415C153.403 103.919 157.418 102.746 161.031 100.917C160.997 100.993 160.931 101.156 160.32 101.415C162.122 100.724 167.382 98.958 166.491 98.6841C166.693 99.0166 170.442 97.1766 172.429 96.2133L172.226 96.5898C173.817 95.5781 173.835 95.474 176.21 94.429C176.797 94.2346 176.806 94.4357 176.02 94.6718C177.012 94.3625 177.357 94.1559 177.756 93.9306C177.956 93.8179 178.167 93.7035 178.476 93.5632C178.636 93.4873 178.797 93.4212 179.035 93.3329C179.338 93.224 179.685 93.0982 180.096 92.9519L179.004 93.5706C179.36 93.4332 179.662 93.3145 179.931 93.2109C180.072 93.1583 180.201 93.1074 180.319 93.0583C180.398 92.975 180.388 92.8448 180.432 92.7569C180.54 92.3551 180.601 92.0922 180.645 91.8625C180.693 91.5207 180.678 91.2801 180.72 90.747C180.819 90.1441 181.137 89.2634 181.392 88.4938C181.602 87.7214 181.851 87.0542 182.014 86.9271C181.877 86.645 181.88 85.5814 182.092 84.4644C182.206 84.3147 182.261 84.7313 182.249 84.9458C182.51 83.3451 182.491 82.1432 182.493 81.0698C182.427 80.0069 182.324 79.0714 182.468 77.9552C182.573 77.898 182.62 77.7589 182.647 77.5723C182.655 78.8469 182.666 79.9993 182.68 80.8072C182.625 81.6158 182.574 82.0896 182.57 81.989C182.857 81.9941 183.063 79.906 183.338 81.5634C183.342 80.7224 183.06 79.5927 182.943 78.4265C182.838 77.2586 182.615 76.0688 182.581 75.0617C182.599 74.9576 182.618 74.8634 182.652 74.7872L182.707 74.991C182.691 74.5279 182.625 74.1131 182.542 73.7314C182.542 73.0834 182.467 72.6802 182.382 72.076C182.557 71.8053 182.167 69.7104 181.883 68.7126C181.586 68.861 181.332 67.5446 181.363 68.8255C181.338 68.6675 181.449 69.0043 181.611 69.6671C181.646 69.8134 181.696 69.9877 181.723 70.0847C181.72 70.0649 181.694 70.0487 181.69 70.0191C181.806 70.679 181.966 71.5446 182.132 72.5206C181.838 71.7472 181.561 70.9406 181.54 69.7998C181.225 69.3234 180.88 68.811 180.709 68.5243C180.867 67.0715 180.333 64.4226 180.481 63.984C179.405 61.026 177.837 57.0626 176.445 55.5015C175.98 54.7348 176.151 54.5153 176.087 54.1813C176.363 54.6235 176.634 55.1778 176.83 55.4C176.363 54.6235 175.786 53.4392 175.193 52.4399C174.594 51.4109 174.064 50.6648 173.712 50.4675C173.07 49.2328 173.283 49.4218 173.501 49.6404C173.598 49.7465 173.666 49.8166 173.581 49.6378C173.55 49.592 173.519 49.5363 173.471 49.4527C173.423 49.3691 173.379 49.2344 173.193 49.2843C172.861 49.2862 172.416 49.2961 171.801 49.3127L172.493 49.2029C171.995 49.1704 171.511 49.146 171.026 49.1216C170.624 49.1145 170.234 49.1056 169.843 49.0967C169.075 49.0869 168.322 49.1051 167.595 49.1394C166.141 49.2081 164.742 49.3388 163.331 49.4614C160.499 49.7183 157.582 49.9481 153.855 49.6179C154.365 49.6585 154.631 49.677 154.732 49.732C146.237 49.51 137.202 50.275 128.824 49.8522C126.443 49.7744 126.184 50.018 124.715 50.2105L124.21 49.9159L121.709 50.3126C118.172 50.6003 115.616 49.6389 111.134 50.1777L111.703 50.371C110.097 50.3523 106.616 50.5603 106.888 50.3248C106.722 50.3612 106.361 50.54 105.728 50.4479L105.681 50.2935L101.737 50.6153C98.6809 50.5432 102.232 49.98 97.772 50.009C96.1136 50.0898 93.0368 50.5374 93.6584 50.6311C94.3216 50.6272 95.3641 50.7048 95.4131 50.8692L93.895 50.9682C93.6035 51.4397 92.4334 51.9291 96.1411 52.2117L98.7456 51.8897L99.5693 52.1033L97.3897 52.1453C98.6232 52.3445 99.4162 52.1478 100.297 51.998C100.499 52.1178 100.865 52.1913 101.375 52.2319L103.933 51.7554C104.235 51.9302 102.779 52.1308 104.486 52.2144C105.687 51.9935 103.347 51.8179 105.325 51.6561C106.558 51.8553 106.197 52.034 107.654 51.8334C107.856 51.9532 107.548 52.0325 106.962 52.0949C108.264 51.929 110.391 51.9865 111.071 51.7268C112.357 51.9683 115.446 51.5998 115.311 52.0464C115.716 51.9315 117.598 51.6735 118.794 51.6357C116.605 52.1955 123.254 51.6067 122.659 52.187C124.285 51.6861 128.474 51.9024 131.334 51.6007C131.168 51.6371 130.86 51.7163 130.605 51.6961C132.21 51.7148 132.668 51.8549 133.697 51.9244C133.909 51.5263 136.419 51.4016 137.764 51.1478C139.72 51.5056 136.557 51.6227 137.163 51.9821C137.067 51.6633 140.586 51.6215 139.927 51.3615C141.426 51.5793 141.224 51.4595 141.984 51.7744C142.259 51.275 143.387 51.6733 144.641 51.3528C146.815 51.5648 145.193 51.8019 147.58 51.6257C148.712 51.7601 146.581 51.9664 146.581 51.9664L146.683 51.9604ZM180.741 75.7991C180.685 75.3727 180.639 75.0153 180.613 74.7765C180.646 74.9839 180.671 75.2838 180.741 75.7991ZM180.935 79.9804C180.935 79.4741 180.925 78.8377 180.921 78.1601C181.033 78.0006 181.138 78.1561 181.148 78.5797C181.067 78.3597 181.018 79.3496 180.933 79.9705L180.935 79.9804ZM182.293 70.7941C182.456 71.4568 182.436 71.6928 182.385 71.8022C182.323 71.488 182.241 71.1162 182.141 70.6259C182.138 70.6061 182.098 70.572 182.084 70.554C182.149 70.6044 182.228 70.6728 182.282 70.7958L182.293 70.7941Z" fill="#202020"/>
<path d="M181.667 69.6592C181.64 69.5622 181.61 69.5163 181.578 69.3897C181.589 69.5297 181.598 69.6599 181.598 69.8017C181.644 69.8754 181.69 69.9491 181.736 70.0228C181.717 69.9043 181.697 69.7759 181.656 69.6609L181.667 69.6592Z" fill="#202020"/>
<path d="M25.9598 4.63878L25.8641 4.68433C25.939 4.6522 26.0155 4.62994 26.0713 4.62109C26.0044 4.63171 26.0044 4.63171 25.9598 4.63878Z" fill="#202020"/>
<path d="M131.047 110.119L131.08 110.185L131.447 109.975L131.047 110.119Z" fill="#202020"/>
<path d="M47.1901 7.58C47.1979 7.62939 47.2455 7.71297 47.3582 7.84697C47.355 7.82721 47.2901 7.70589 47.1901 7.58Z" fill="#202020"/>
<path d="M54.7486 14.8852L55.7458 15.9825C55.3266 15.5022 55.009 15.1577 54.7486 14.8852Z" fill="#202020"/>
<path d="M60.4892 20.5553C60.6086 20.587 60.6547 20.5898 60.6993 20.5827L60.6978 20.5728L60.4908 20.5652L60.4892 20.5553Z" fill="#202020"/>
<path d="M24.4939 72.5367C24.543 72.6301 24.5921 72.7236 24.6285 72.8089C24.9788 73.4317 24.7618 73.0004 24.4939 72.5367Z" fill="#202020"/>
<path d="M8.43056 39.1727C8.64465 39.5134 8.85718 39.8442 9.06169 40.1965C8.80529 39.5892 8.60585 39.1247 8.43056 39.1727Z" fill="#202020"/>
<path d="M25.6843 111.795C25.6523 111.881 25.6186 111.957 25.585 112.033L25.6843 111.795Z" fill="#202020"/>
<path d="M9.76837 41.7645C9.55501 41.1402 9.31586 40.6415 9.06223 40.1958C9.26637 40.6899 9.49732 41.281 9.76837 41.7645Z" fill="#202020"/>
<path d="M85.7557 44.8272L86.0289 45.1079C86.0289 45.1079 86.0735 45.1008 86.0974 45.1072L85.7557 44.8272Z" fill="#202020"/>
<path d="M86.0977 45.1065L86.4394 45.3865C86.2917 45.2479 86.1709 45.1354 86.0977 45.1065Z" fill="#202020"/>
<path d="M87.16 45.9607L86.4401 45.3864C86.6689 45.6032 86.9405 45.874 87.16 45.9607Z" fill="#202020"/>
<path d="M78.1137 37.352L77.9401 37.339C78.0022 37.3697 78.0611 37.3806 78.1137 37.352Z" fill="#202020"/>
<path d="M75.7347 35.1269C76.2801 35.6783 76.9566 36.6239 77.7997 37.3205L77.9384 37.3288C77.4416 37.0836 76.4129 35.5053 75.7332 35.117L75.7347 35.1269Z" fill="#202020"/>
<path d="M66.9547 24.8771L68.8641 26.8118C68.6054 26.4074 68.28 25.8717 69.2024 26.7075C66.9824 24.1133 69.5131 27.367 66.9659 24.8753L66.9547 24.8771Z" fill="#202020"/>
<path d="M60.9772 18.9401C62.0814 19.9192 61.0953 18.8201 61.2004 18.8338C60.4471 18.2648 60.2643 18.1216 60.9772 18.9401Z" fill="#202020"/>
<path d="M9.01993 15.8314L8.94104 15.5503C8.07422 16.356 9.0109 15.6303 9.01993 15.8314Z" fill="#202020"/>
<path d="M2.10962 24.6535C2.11783 24.5611 2.04484 24.4613 2.12465 24.3879L2.42455 24.1884C2.40732 24.0798 2.39008 23.9712 2.43506 23.8223L2.09156 24.2514C2.05635 24.3177 1.9511 24.3749 1.99708 24.4486L2.10962 24.6535Z" fill="#202020"/>
<path d="M2.88347 31.2638L2.6457 30.8459L3.49818 32.4724L2.88347 31.2638Z" fill="#202020"/>
<path d="M18.7355 121.959L19.1931 121.745C19.4115 121.032 19.0969 120.778 18.7355 121.959Z" fill="#202020"/>
<path d="M10.2939 162.918C10.4154 163.395 11.0373 164.502 11.6991 164.994C11.0492 164.216 10.6308 163.31 10.2939 162.918Z" fill="#202020"/>
<path d="M120.323 117.055L119.478 117.503L121.124 116.766L120.323 117.055Z" fill="#202020"/>
<path d="M9.50548 153.618C9.47341 153.704 9.49358 153.903 9.5558 153.863L9.61719 153.529L9.50548 153.618Z" fill="#202020"/>
<path d="M9.94874 154.246C10.0383 154.09 10.1426 153.81 10.094 153.504C10.0072 153.821 9.98524 153.683 9.88552 154.063C9.81215 154.105 9.76479 153.951 9.77944 153.827C9.74737 153.913 9.67612 153.752 9.62939 153.962C9.71629 154.222 9.82137 154.236 9.94773 154.023C9.97141 154.1 9.93933 154.187 9.93758 154.248L9.94874 154.246Z" fill="#202020"/>
<path d="M16.5545 155.194L16.5247 155.148C16.5247 155.148 16.5419 155.186 16.5545 155.194Z" fill="#202020"/>
<path d="M20.4949 156.076C20.4949 156.076 20.4423 156.105 20.4247 156.138C20.4581 156.133 20.4884 156.108 20.4949 156.076Z" fill="#202020"/>
<path d="M21.0451 156.586C21.0451 156.586 21.02 156.57 21.0169 156.55C21.0216 156.58 21.0247 156.6 21.0451 156.586Z" fill="#202020"/>
<path d="M16.5546 155.193L16.6419 155.31C16.6708 155.205 16.6055 155.225 16.5546 155.193Z" fill="#202020"/>
<path d="M10.9248 153.475C10.9248 153.475 10.8753 153.523 10.8577 153.556C10.8785 153.543 10.8992 153.529 10.9215 153.526L10.9137 153.476L10.9248 153.475Z" fill="#202020"/>
<path d="M14.7161 155.221L14.6826 155.226C14.6826 155.226 14.649 155.302 14.6329 155.345L14.7161 155.221Z" fill="#202020"/>
<path d="M13.3371 155.187C13.3371 155.187 13.4095 154.922 13.4353 154.797C13.4079 154.913 13.3712 154.969 13.3393 154.984C13.3359 155.035 13.323 155.098 13.326 155.189L13.3371 155.187Z" fill="#202020"/>
<path d="M11.1768 154.629L11.1376 154.665C11.1376 154.665 11.1674 154.641 11.1768 154.629Z" fill="#202020"/>
<path d="M15.6848 155.412C15.6848 155.412 15.6754 155.495 15.6786 155.514C15.6848 155.483 15.6895 155.442 15.6848 155.412Z" fill="#202020"/>
<path d="M47.709 173.215C47.709 173.215 47.6771 173.23 47.6563 173.243C47.6898 173.238 47.7121 173.235 47.709 173.215Z" fill="#202020"/>
<path d="M47.0243 175.176L47.0004 175.17L46.8378 175.226L47.0243 175.176Z" fill="#202020"/>
<path d="M32.4012 161.499C32.4609 161.226 32.7982 161.334 32.8149 161.008C32.7621 161.107 32.3668 161.281 32.4012 161.499Z" fill="#202020"/>
<path d="M10.966 153.518C10.966 153.518 11.0107 153.511 11.0218 153.509C10.9979 153.503 10.974 153.497 10.966 153.518Z" fill="#202020"/>
<path d="M24.8781 157.944C24.8781 157.944 24.8984 157.86 24.9031 157.818C24.8953 157.84 24.8796 157.883 24.8781 157.944Z" fill="#202020"/>
<path d="M23.0472 156.867L23.0785 156.923C23.0785 156.923 23.0597 156.875 23.0472 156.867Z" fill="#202020"/>
<path d="M26.1002 157.931C26.1002 157.931 26.1112 158 26.1654 157.981C26.1638 157.971 26.1623 157.961 26.1607 157.952C26.1319 157.986 26.0985 157.992 26.0907 157.942L26.1002 157.931Z" fill="#202020"/>
<path d="M27.166 158.369C27.166 158.369 27.1706 158.328 27.1785 158.307L27.1346 158.314L27.166 158.369Z" fill="#202020"/>
<path d="M45.6634 170.42C45.6043 170.48 45.5229 170.544 45.4527 170.605C45.6266 170.476 45.8015 170.57 45.6634 170.42Z" fill="#202020"/>
<path d="M10.9163 153.637C10.9276 153.564 10.9452 153.531 10.9548 153.52C10.9437 153.521 10.9214 153.525 10.9102 153.527C10.9053 153.568 10.9005 153.609 10.9036 153.629L10.9163 153.637Z" fill="#202020"/>
<path d="M27.2205 155.9L27.3858 156.005C27.3858 156.005 27.2937 155.929 27.2205 155.9Z" fill="#202020"/>
<path d="M27.9404 156.181C27.9226 156.285 27.9224 156.356 27.9414 156.404C27.9622 156.39 27.9829 156.377 28.0005 156.344L27.9404 156.181Z" fill="#202020"/>
<path d="M46.7833 171.205C46.6913 171.057 46.3923 171.338 46.1657 171.424C45.954 171.316 46.3816 171.198 46.516 171.034C46.3471 170.98 45.9641 171.092 45.9165 171.008C45.9677 170.97 45.9853 170.936 46.0619 170.914C45.7046 170.971 45.8061 170.6 45.361 170.681C45.3802 170.658 45.4106 170.633 45.441 170.608C45.278 170.735 45.1007 170.844 44.9745 170.914C44.9205 170.862 44.6684 170.933 44.884 170.777C44.9015 170.815 44.9957 170.759 45.085 170.745L44.9352 170.738C45.2261 170.48 45.1105 170.761 45.3612 170.61C45.1573 170.551 44.7826 170.57 44.8037 170.415C45.1121 170.194 45.0807 170.574 45.2729 170.27L45.2627 170.494C45.688 170.072 45.2927 170.611 45.7611 170.172C45.7092 169.917 45.433 170.052 45.3811 169.797C45.1736 169.86 45.1239 169.98 44.9164 170.043C44.3889 169.964 45.5578 169.323 44.9725 169.386C44.7219 169.466 44.3019 169.705 44.3952 169.427L44.7895 169.243C44.6769 169.038 44.1958 169.469 44.278 169.121C44.4408 169.065 44.517 169.185 44.5315 169.132C44.711 168.82 44.2524 169.176 44.1793 169.076L44.4749 168.847C44.2665 168.688 43.8665 168.62 43.6326 168.444C43.7396 168.397 43.8608 168.367 43.9106 168.248C43.53 168.086 43.4818 167.638 43.4096 167.254L43.0585 167.351C43.0585 167.351 43.1418 167.226 43.2088 167.215C43.2157 167.042 43.0331 167.334 42.8879 167.357C42.8131 167.319 42.973 167.172 43.0846 167.154C42.7052 167.143 42.1571 167.008 42.2682 166.625L42.3798 166.608C42.3438 166.381 41.7079 166.846 41.8188 166.535L41.8858 166.524C41.7099 166.137 41.1699 165.98 41.3053 165.462C40.898 165.709 41.1582 165.04 40.6373 165.436C40.7053 165.071 40.8489 165.038 40.767 164.666C40.7194 164.583 40.3584 164.833 40.2277 164.803L40.4786 164.581L40.0973 164.702L40.3453 164.389L40.205 164.371C40.205 164.371 40.1504 164.531 40.08 164.593C39.8489 164.579 39.9664 164.166 40.0959 164.044L39.6019 163.96C39.7138 163.872 39.7966 163.889 39.8971 163.873C39.4871 163.958 40.1306 163.613 39.7653 163.691C39.73 163.758 39.6023 163.818 39.5512 163.857C39.6331 163.652 39.474 163.515 39.2828 163.464L39.4793 163.332C39.295 163.108 38.9142 163.016 38.6629 162.803C38.6864 162.951 38.3604 163.205 38.2633 163.17L38.484 162.902C38.2844 163.015 38.4629 163.058 38.1708 163.165C38.1089 163.063 38.3933 162.836 38.5369 162.803L38.3297 162.795C38.3969 162.714 38.4638 162.703 38.5757 162.614C38.3649 162.729 38.6247 162.202 38.2925 162.416L38.3597 162.335C38.1083 162.122 37.9011 162.114 37.6815 161.956C37.4641 162.173 37.4341 162.056 37.201 162.174C37.1138 161.986 37.1211 161.671 36.9078 161.553C36.6686 161.56 36.6921 161.708 36.5005 161.799C36.6845 161.588 36.4727 161.48 36.7009 161.403C36.4398 161.273 36.365 161.234 35.9123 161.194C35.8722 161.302 35.8704 161.363 35.7873 161.416C35.706 161.409 35.7495 161.25 35.8375 161.155L35.871 161.15C35.2649 161.226 35.6334 160.013 34.9854 160.258L35.0189 160.253L34.5437 160.287C34.4436 160.162 34.756 160.183 34.7709 159.988C34.1758 160.133 34.3543 159.599 33.8885 159.693C34.1935 158.946 33.1322 159.327 33.18 158.762L33.0791 158.92C32.8907 159.031 33.0572 158.782 33.0366 158.724C32.9534 158.849 33.0074 158.901 32.902 158.958C32.1675 158.801 31.8269 158.025 31.2909 157.533C31.0825 157.374 30.6192 158.277 30.5601 157.76L30.8414 157.513C30.1284 157.636 29.8622 157.041 29.2003 157.125C29.2722 157.074 29.3266 156.984 29.376 157.006C29.4038 156.749 29.0161 156.831 28.9057 157C28.8404 156.95 28.9827 156.836 28.9877 156.724C28.9595 156.546 28.5776 156.88 28.6436 156.647C28.6597 156.604 28.7139 156.585 28.7362 156.581C28.6101 156.652 28.4465 156.415 28.3644 156.691C28.2518 156.486 27.958 156.654 27.8996 156.431C27.6518 156.672 27.6724 156.153 27.4258 156.546C27.6693 156.133 27.2851 156.093 27.0695 156.248C27.1782 156.14 27.0428 156.081 27.1788 155.927C27.0354 155.889 26.8806 155.924 26.7892 156.141C26.7988 155.552 26.0934 156.373 26.2691 155.677C25.7555 155.758 25.3138 155.788 24.9216 155.769C25.13 155.351 25.3375 155.865 25.5285 155.41C25.1026 155.467 24.7494 155.766 24.4519 155.55C24.3915 155.458 24.5847 155.377 24.6439 155.317C24.2307 155.383 24.0068 155.054 23.6031 155.178C23.6192 155.135 23.6719 155.107 23.7134 155.08C23.6433 155.071 23.6037 154.966 23.533 155.169L23.608 155.137C23.5896 155.454 23.1283 155.649 23.0624 155.811C23.3892 155.273 22.8111 155.598 23.2658 154.928C23.2131 154.957 23.122 155.032 23.0754 155.171C23.0325 155.117 23.0423 155.034 23.1591 154.905C22.8926 154.957 22.8952 155.189 22.6913 155.131C22.733 155.033 22.7857 155.004 22.8497 154.903C22.6803 155.061 22.5013 155.232 22.3677 155.111C22.4045 155.055 22.4031 154.974 22.4621 154.985C22.1577 154.942 21.7898 155.365 21.5434 155.11C21.7789 154.718 21.4832 154.948 21.5975 154.585L21.39 154.648L21.3975 154.84C21.2541 154.802 21.027 155.03 20.9461 154.881L21.1091 154.754L20.8125 154.76L20.9205 154.936C20.7048 155.091 20.7884 155.402 20.6278 155.255C20.6805 155.227 20.4844 155.217 20.4707 154.987C20.3604 155.085 20.2517 155.194 20.1643 155.076C20.1679 154.954 20.3074 154.678 20.3172 154.596C20.1457 154.886 19.9393 154.595 19.7583 154.897C19.8159 154.827 19.8658 154.637 19.8707 154.596L19.7362 154.83C19.687 154.736 19.6919 154.695 19.7481 154.544C19.5507 154.454 19.675 155.022 19.4972 154.766C19.5179 154.753 19.5228 154.712 19.5755 154.683C19.3559 154.526 19.0541 154.715 18.86 154.574C18.8913 154.194 19.0897 154.507 19.097 154.192C18.735 154.219 18.2829 154.544 17.9867 154.409L18.0408 154.461C17.8703 154.974 17.8567 154.166 17.6408 154.393C17.6919 154.354 17.7675 154.109 17.7419 154.164C17.5413 154.054 17.2506 154.242 16.89 154.35L16.9605 154.217C16.8588 154.081 16.6324 154.097 16.505 154.016C16.4345 154.149 16.3597 154.11 16.3703 154.321C16.0776 153.486 15.4686 154.626 15.1979 153.93C15.2441 153.932 15.3305 153.828 15.2955 153.823L14.9429 153.909C14.9342 154.144 14.9664 154.058 14.9961 154.245C14.9368 154.376 14.8265 154.475 14.7436 154.457C14.9162 154.319 14.7989 154.084 14.7546 153.949C14.7656 154.019 14.7207 154.097 14.7205 154.167C14.6069 153.74 14.622 154.629 14.4363 154.324L14.4637 154.208C14.3695 154.264 14.2574 154.423 14.1714 154.386C14.1738 154.112 14.2786 154.268 14.3239 154.048C14.1883 154.059 13.9908 154.546 13.9023 154.277C13.9711 154.205 14.0508 154.203 14.1196 154.131C14.0344 153.811 14.0022 153.897 13.9131 153.84L13.7063 153.69L13.7538 153.774C13.4968 154.463 13.3948 153.892 13.1113 154.342C13.3756 153.915 13.1742 154.089 13.2293 153.786C13.1817 153.703 13.0974 153.605 13.1407 153.517C13.0077 153.761 12.9834 153.319 12.7879 153.674C12.7946 153.572 12.6716 153.662 12.7249 153.421C12.5764 153.495 12.7515 153.589 12.7145 153.716C12.468 154.039 12.2358 153.296 11.8949 153.745C11.6138 153.921 11.5411 154.257 11.2792 154.41C11.2079 154.249 11.3711 154.051 11.3711 154.051C11.244 153.899 11.145 153.925 11.014 154.037C11.0461 153.95 11.024 153.883 10.994 153.766C10.8935 153.782 10.9021 154.125 10.775 153.973C10.804 153.867 10.8444 153.689 10.8957 153.579C10.7727 153.67 10.6398 153.843 10.5168 153.933C10.4902 153.765 10.602 153.677 10.6534 153.567C10.5049 153.641 10.2863 153.706 10.2265 153.979L10.3107 154.077C10.3107 154.077 10.297 153.846 10.3354 153.8C10.462 153.587 10.4994 153.895 10.5039 153.996L10.4112 154.061C10.4798 154.638 10.7654 153.985 10.9423 154.017L10.8471 154.427L11.0441 154.082C11.0725 154.189 11.099 154.428 10.9936 154.485C11.1078 154.7 11.1088 154.345 11.2022 154.574C11.2085 154.613 11.2116 154.633 11.1908 154.646L11.3203 154.525C11.2882 154.611 11.3211 154.818 11.2543 154.758C11.4545 155.01 11.6298 154.455 11.6911 154.769L11.6719 154.793C11.9832 154.662 11.727 154.49 11.9799 154.136L12.067 154.902L12.1221 154.6C12.1221 154.6 12.2081 154.637 12.1934 154.761C12.3327 154.556 12.1842 154.631 12.2676 154.435C12.3928 154.719 12.7064 154.315 12.6811 154.805C12.7583 154.57 12.5493 154.623 12.7299 154.463C12.7221 154.991 12.9231 154.382 13.042 154.626C12.9695 154.891 12.8551 154.747 12.9628 154.993C13.0964 154.536 13.2208 155.104 13.3438 155.014C13.3895 154.652 13.6184 154.869 13.8292 154.754C13.8034 154.88 14.1714 154.963 14.3305 155.1L14.3176 155.163C14.4094 154.804 14.5845 154.898 14.7234 154.835C14.6893 155.053 14.646 155.141 14.5565 155.226L14.684 155.236C14.7354 155.127 14.7834 155.069 14.8696 155.035L14.7971 155.299C14.9692 155.302 15.1885 155.025 15.3696 155.229C15.4325 154.976 15.3223 154.497 15.5858 154.354C15.5726 154.488 15.5417 154.726 15.4698 154.778C15.4905 154.764 15.5562 154.673 15.5895 154.738L15.4533 154.962C15.5295 155.082 15.5383 154.777 15.6116 154.806C15.5744 155.004 15.6351 154.954 15.6027 155.111C15.582 155.124 15.5536 155.017 15.5087 155.095C15.5963 155.142 15.674 155.272 15.6864 155.422C15.7026 155.308 15.7365 155.161 15.802 155.14C15.9741 155.143 15.8172 155.381 15.8934 155.5C15.964 155.367 16.0352 155.528 16.103 155.234C16.1508 155.247 16.1265 155.382 16.1391 155.461C16.2462 155.343 16.5536 155.476 16.513 155.149L16.5083 155.119C16.8566 154.861 17.0625 155.365 17.38 155.274L17.3606 155.369C17.5522 155.278 17.7465 155.348 17.9224 155.158C17.9687 155.161 17.9984 155.348 17.9487 155.468C18.1003 155.413 18.1404 155.306 18.2834 155.486C18.1124 155.634 18.2862 155.647 18.1173 155.593C18.2605 155.702 18.2632 155.863 18.511 155.622C18.3892 155.864 18.5627 155.947 18.6554 155.882L18.5906 155.69C18.6911 155.674 18.7628 155.693 18.8376 155.732L18.7044 156.047C18.9167 156.519 19.4903 155.517 19.5473 156.237C19.6977 156.031 19.4123 156.035 19.5788 155.786C19.7173 155.866 19.7398 156.368 19.7764 156.383C19.9273 156.612 20.1204 155.954 20.2969 156.128C20.3004 156.006 20.3763 155.69 20.5821 155.617C20.7206 155.696 20.6093 156.149 20.4832 156.22C20.4497 156.225 20.4419 156.176 20.4483 156.144C20.3845 156.175 20.3095 156.207 20.3202 156.347L20.3827 156.236C20.4158 156.372 20.6278 156.41 20.5188 156.589C20.6658 156.505 20.6277 156.41 20.569 156.328C20.7055 156.539 20.8669 156.402 21.0307 156.568C21.0197 156.499 21.0424 156.354 21.0663 156.36C21.3065 156.575 21.2773 156.175 21.4942 156.171C21.5494 156.375 21.3065 156.575 21.5539 156.475C21.6348 156.625 21.4653 156.783 21.387 156.866C21.6458 156.694 21.6749 157.094 21.7529 157.153L21.6267 157.223C21.7002 157.181 21.7496 157.204 21.7942 157.197L21.8252 156.959C21.8681 157.013 21.9159 157.025 21.8742 157.123C21.9893 156.983 21.9725 156.733 22.1627 156.561C22.1846 156.699 22.4371 156.487 22.3486 156.795C22.1513 156.634 22.26 157.102 22.0432 157.107C22.0959 157.078 22.1437 157.091 22.1866 157.145C22.1913 157.174 22.1498 157.201 22.129 157.214C22.2492 157.54 22.3643 156.894 22.5921 156.959C22.4928 157.126 22.5194 157.294 22.5721 157.266C22.4765 157.24 22.6399 156.971 22.7821 156.858C22.8677 157.036 22.9815 156.816 23.0452 156.856L22.9848 156.765C23.0857 156.607 23.1509 156.657 23.2738 156.638C23.2271 156.777 23.1461 156.699 23.157 156.768C23.3905 156.508 23.2771 157.164 23.5167 157.015C23.5386 157.153 23.3834 157.329 23.4118 157.436C23.6849 157.281 23.4923 157.727 23.7605 157.614C23.8138 157.372 23.7754 157.419 24.0007 157.252L23.6322 157.31L23.9678 157.044C23.8818 157.007 23.7157 157.115 23.6728 157.061C23.8438 156.912 23.8166 156.957 23.8538 156.759C23.8336 157.136 24.1905 156.644 24.236 156.931L23.9809 157.488C24.0772 157.806 24.4947 157.335 24.7156 157.574L24.6729 157.449C24.8122 157.244 24.861 157.48 24.9999 157.417C24.9021 157.595 24.9274 157.682 24.9143 157.815C24.9721 157.675 25.1101 157.896 25.3168 157.539L25.3272 157.821C25.5037 157.995 25.8545 157.393 26.0359 157.526C25.8696 157.704 25.8947 157.862 25.6808 157.957C25.754 157.986 25.7969 158.04 25.869 157.917C25.8543 158.041 26.1963 157.744 26.1814 157.938C26.2502 157.867 26.3703 157.686 26.4451 157.725C26.429 157.768 26.4018 157.812 26.4018 157.812C26.4451 157.725 26.595 157.731 26.6291 157.513C26.5571 158.142 27.2614 157.747 27.1897 158.305C27.3746 158.316 27.5961 158.342 27.7411 158.39C27.7027 158.436 27.6866 158.479 27.6707 158.451C27.7673 158.699 28.0898 157.99 28.2038 158.276C28.1422 158.61 27.9914 158.38 28.0022 158.52C27.6848 159.117 28.3177 158.561 28.256 158.966L28.2002 158.975C28.1947 159.229 28.6102 158.89 28.7677 159.017C28.7677 159.017 28.7293 159.063 28.7132 159.106C29.0184 158.865 29.3181 158.879 29.5589 158.881C29.3606 159.074 29.4008 158.967 29.2901 159.207C29.3937 159.211 29.5048 158.829 29.7009 158.838C29.6781 158.984 29.7144 159.14 29.5718 159.395L29.4141 159.339C29.2856 159.684 29.61 159.42 29.6576 159.503L29.552 159.631C29.8133 159.691 30.0439 159.341 30.265 159.508L30.3148 159.389C30.6727 159.119 30.2854 159.636 30.5888 159.457L30.3837 159.823C30.5273 159.79 30.9071 159.659 31.1063 159.689C30.8411 159.893 30.5715 159.925 30.3561 160.01C30.4325 160.059 30.6522 160.145 30.8121 159.998C30.7563 160.007 30.6524 160.074 30.6638 160.002C30.9514 159.794 31.1827 159.737 31.3482 159.843C30.8426 160.48 31.6548 160.26 31.4013 160.826C31.8702 160.752 31.8927 161.255 32.2606 161.409C32.538 160.849 32.3705 161.452 32.7578 160.935C32.863 160.949 32.89 160.975 32.8612 161.01L32.8504 161.447C32.7877 161.629 32.6892 161.513 32.6044 161.628C32.7411 161.768 32.4968 161.888 32.4947 162.091C32.6243 161.898 32.7695 161.875 32.801 162.002L32.8641 161.678C33.3156 161.566 32.6999 162.23 33.153 162.128L32.9518 162.231C33.1448 162.22 33.3655 162.53 33.8304 162.213C33.7967 162.289 33.7054 162.435 33.6257 162.438C33.8482 162.686 34.611 162.443 34.6163 162.838L34.4836 162.94C34.5634 162.937 34.779 162.781 34.7356 162.94C34.686 162.988 34.6029 163.042 34.6188 163.07C34.6842 163.049 34.9444 162.958 34.952 163.078L34.7716 163.167C34.895 163.512 35.4972 163.123 35.7871 163.219C35.4513 163.556 35.5414 163.835 35.5857 163.97L35.5361 164.018C35.7856 164.292 36.3122 164.148 36.7153 164.236C36.5082 164.735 37.1345 164.858 37.1891 165.275C37.2085 165.18 37.4704 165.027 37.5517 165.035C37.5466 165.147 37.9744 164.958 37.642 165.243L37.6373 165.214C37.3574 165.541 37.5693 165.579 37.6535 165.677L38.0994 165.312C37.7209 166.101 38.9895 165.728 38.5493 166.345C38.7168 166.318 38.7947 166.377 38.9607 166.34L38.7162 166.531C38.8176 166.737 38.8684 166.841 39.1326 166.991L38.9203 167.096C39.0188 167.212 39.7569 166.669 39.8858 166.76L39.5581 167.076C39.7696 167.255 39.6264 167.723 40.1543 167.659C40.092 167.7 39.9898 167.777 39.9404 167.754C40.0246 167.852 40.0282 168.307 40.5124 167.896C40.1864 168.15 40.676 168.134 40.9279 168.134L40.6675 168.297C41.0681 168.152 41.1623 168.097 41.3678 168.166C41.3645 168.217 41.1999 168.334 41.2209 168.25C41.1837 168.448 41.5273 168.161 41.5171 168.385L41.3112 168.458C41.3874 168.578 41.4673 168.504 41.7083 168.436C41.8677 168.431 41.8272 168.68 41.6146 168.855C41.7615 168.771 42.0136 168.701 41.9974 168.815C41.9174 168.888 41.8505 168.899 41.8058 168.906C41.7858 169.213 42.3206 168.976 42.1858 169.281C42.1043 169.345 42.0643 169.381 42.0563 169.403C41.9403 169.249 41.8626 169.12 41.8865 169.126C41.6485 169.285 41.707 169.438 41.3145 169.561C41.5617 169.532 42.0849 169.439 42.0684 169.624C42.0492 169.647 42.03 169.67 41.9997 169.695L41.9662 169.701C41.9662 169.701 42.0091 169.755 42.0649 169.746C42.052 169.809 42.0471 169.85 42.0757 169.886C41.8919 170.026 42.0847 170.087 42.118 170.153C42.3767 169.98 42.3924 170.079 42.554 169.871C42.546 169.892 42.5094 169.878 42.4696 169.844C42.4584 169.845 42.4441 169.827 42.4234 169.841L42.4457 169.837C42.4457 169.837 42.363 169.749 42.309 169.697C42.4749 169.661 42.6312 169.636 42.5415 169.792C42.7346 169.711 42.9294 169.639 43.0252 169.594C42.7325 169.913 42.6631 170.198 42.4602 170.362C42.7485 170.447 42.9056 170.716 43.4929 170.522C43.5981 170.535 43.3904 170.67 43.3328 170.74C43.2643 170.74 43.2468 170.703 43.1591 170.727C43.3695 170.754 43.4453 171.015 43.8045 170.827C43.7497 171.058 43.4231 170.948 43.6188 171.099L43.4991 171.138C43.2086 171.832 44.8366 171.2 44.407 172.027C44.4327 171.972 44.4407 171.951 44.4918 171.912C44.5028 172.559 45.4558 172.721 45.2543 173.472C45.2379 173.657 45.4741 173.559 45.7006 173.543L45.421 173.729L45.85 173.692C46.2293 173.773 45.3235 174.413 45.966 174.422L46.1513 174.292C46.1685 174.4 46.4408 174.529 46.203 174.618C46.2476 174.611 46.4328 174.551 46.3432 174.636L46.1836 174.712L46.5883 174.81C46.5669 175.036 45.9322 175.076 46.0431 175.342C46.1546 175.395 46.6472 175.398 46.7383 175.323C46.732 175.283 46.7849 175.184 46.9558 175.106L47.0895 175.155C47.5748 174.967 48.1187 174.861 48.3303 174.463C48.2012 174.443 48.0737 174.432 47.9462 174.422L48.1507 174.268L48.2396 174.396C48.4171 174.216 48.1953 174.261 48.0359 174.266C48.1509 174.197 48.2212 174.136 48.2469 174.081L47.7047 174.126C47.8819 174.017 48.1131 174.031 48.1566 173.872C47.9078 173.892 47.7859 174.134 47.5709 174.077C47.7483 173.897 47.9335 173.837 47.6927 173.835C47.8077 173.766 47.897 173.752 47.9672 173.761C47.7822 173.75 47.7891 173.576 47.5162 173.66C47.7352 173.453 47.2857 173.433 47.7327 173.221C47.6099 173.24 47.3037 173.259 47.2481 173.196C47.8559 173.06 47.1229 172.913 47.7008 172.659C47.1743 172.803 47.2838 172.411 46.9028 172.391C46.9474 172.384 47.0352 172.359 47.016 172.383C46.9972 172.264 47.1187 172.164 47.1588 172.056C46.7661 172.25 46.5782 172.148 46.2879 172.195C46.5806 171.875 46.7858 172.014 47.1165 171.79C46.8115 171.96 46.6766 171.758 46.4417 171.937C46.6145 171.728 46.501 171.806 46.7855 171.579C46.2985 171.828 46.6533 171.539 46.3134 171.634C46.4672 171.376 46.7383 171.354 46.4993 171.29C46.6018 171.142 46.8472 171.174 46.8472 171.174L46.7833 171.205ZM43.5639 168.516C43.5639 168.516 43.6164 168.558 43.6403 168.564C43.6275 168.556 43.6021 168.54 43.5639 168.516ZM43.3398 168.258C43.3398 168.258 43.3858 168.331 43.4272 168.376C43.3472 168.449 43.2514 168.495 43.2356 168.467C43.301 168.446 43.3077 168.344 43.351 168.256L43.3398 168.258ZM42.002 169.999C41.9303 169.98 41.9687 169.933 42.0198 169.895C42.0453 169.911 42.0708 169.927 42.1074 169.942L42.1409 169.936C42.1409 169.936 42.0339 169.984 42.002 169.999Z" fill="#202020"/>
<path d="M42.4013 169.845C42.4013 169.845 42.4236 169.842 42.4348 169.84C42.4539 169.816 42.462 169.795 42.47 169.773L42.3727 169.809L42.3982 169.825L42.4013 169.845Z" fill="#202020"/>
<path d="M40.5731 164.525L40.5124 164.575L40.5889 164.553L40.5731 164.525Z" fill="#202020"/>
<path d="M13.8735 153.806L13.7655 153.702C13.81 153.765 13.8481 153.79 13.8735 153.806Z" fill="#202020"/>
<path d="M13.2298 153.645C13.2298 153.645 13.2095 153.729 13.2033 153.76L13.2283 153.635L13.2298 153.645Z" fill="#202020"/>
<path d="M23.7456 155.066C23.7456 155.066 23.768 155.062 23.7791 155.06C23.854 155.028 23.8094 155.035 23.7456 155.066Z" fill="#202020"/>
<path d="M20.4775 154.955C20.4775 154.955 20.5669 154.87 20.6211 154.851C20.5702 154.819 20.5336 154.804 20.4775 154.955Z" fill="#202020"/>
<path d="M27.2078 155.892L27.2203 155.901L27.2078 155.892Z" fill="#202020"/>
<path d="M20.7518 154.881C20.7185 154.815 20.6612 154.814 20.6086 154.843C20.6467 154.867 20.688 154.911 20.7518 154.881Z" fill="#202020"/>
<path d="M10.3349 153.436L10.2989 153.421C10.2989 153.421 10.3036 153.451 10.2942 153.462L10.3334 153.426L10.3349 153.436Z" fill="#202020"/>
<path d="M10.2935 153.463L10.2543 153.499C10.2543 153.499 10.2872 153.494 10.2935 153.463Z" fill="#202020"/>
<path d="M10.172 153.562L10.2518 153.489C10.2518 153.489 10.1929 153.478 10.172 153.562Z" fill="#202020"/>
<path d="M11.2072 153.59L11.2244 153.486C11.2244 153.486 11.2103 153.539 11.2072 153.59Z" fill="#202020"/>
<path d="M11.4777 153.568C11.4172 153.547 11.3286 153.348 11.2345 153.404L11.2247 153.486C11.2808 153.336 11.4024 153.742 11.4777 153.568Z" fill="#202020"/>
<path d="M12.4849 154.867L12.2765 154.778C12.2937 154.887 12.3395 155.031 12.2407 155.057C12.4883 155.393 12.2016 154.81 12.4849 154.867Z" fill="#202020"/>
<path d="M13.143 155.046C13.025 155.095 13.1219 155.201 13.109 155.264C13.1968 155.169 13.216 155.146 13.143 155.046Z" fill="#202020"/>
<path d="M17.9629 155.557L17.889 155.811C17.9893 155.795 17.9195 155.715 17.9629 155.557Z" fill="#202020"/>
<path d="M19.2433 154.393L19.2151 154.215L19.0903 154.437C19.1445 154.418 19.1875 154.401 19.2433 154.393Z" fill="#202020"/>
<path d="M19.2602 156.303L19.2188 156.33L19.3813 156.273L19.2602 156.303Z" fill="#202020"/>
<path d="M26.8451 158.512L26.9812 158.217C26.8936 158.241 26.7048 158.564 26.8451 158.512Z" fill="#202020"/>
<path d="M30.0926 159.648C30.0253 159.8 30.0472 159.938 30.1908 159.835C30.1368 159.783 30.1468 159.629 30.0926 159.648Z" fill="#202020"/>
<path d="M37.8417 165.709L37.7095 165.74L37.8734 165.764L37.8417 165.709Z" fill="#202020"/>
<path d="M174.306 92.6754C174.402 92.6299 174.563 92.493 174.481 92.4757L174.166 92.6572L174.306 92.6754Z" fill="#202020"/>
<path d="M174.568 91.9463C174.382 91.9961 174.079 92.1049 173.831 92.3467C174.161 92.1931 174.053 92.3014 174.434 92.1094C174.506 92.1284 174.413 92.2646 174.298 92.3334C174.384 92.2995 174.294 92.4555 174.507 92.351C174.676 92.1216 174.627 92.0281 174.362 92.0903C174.409 92.0222 174.506 91.9866 174.557 91.9481L174.568 91.9463Z" fill="#202020"/>
<path d="M171.349 86.8066L171.335 86.8595C171.335 86.8595 171.352 86.8264 171.349 86.8066Z" fill="#202020"/>
<path d="M169.694 83.5161C169.694 83.5161 169.754 83.5369 169.786 83.5217C169.75 83.5072 169.726 83.5009 169.694 83.5161Z" fill="#202020"/>
<path d="M169.798 82.8C169.798 82.8 169.803 82.8297 169.794 82.8413C169.823 82.8163 169.831 82.7948 169.798 82.8Z" fill="#202020"/>
<path d="M171.349 86.807L171.396 86.668C171.289 86.7153 171.341 86.7576 171.349 86.807Z" fill="#202020"/>
<path d="M173.309 91.8012C173.309 91.8012 173.377 91.8005 173.42 91.7835C173.398 91.7871 173.373 91.7709 173.36 91.7628L173.307 91.7914L173.309 91.8012Z" fill="#202020"/>
<path d="M172.495 88.0423L172.5 88.072C172.5 88.072 172.597 88.0363 172.652 88.0176L172.495 88.0423Z" fill="#202020"/>
<path d="M173.312 89.0059C173.312 89.0059 173.035 89.1309 172.909 89.2015C173.025 89.1425 173.092 89.1319 173.127 89.1365C173.18 89.1079 173.231 89.0694 173.301 89.0076L173.312 89.0059Z" fill="#202020"/>
<path d="M172.061 87.2509C172.061 87.2509 172.133 87.199 172.153 87.1855C172.121 87.2007 172.091 87.2258 172.061 87.2509Z" fill="#202020"/>
<path d="M167.797 53.4405C167.797 53.4405 167.833 53.4551 167.846 53.4632C167.821 53.447 167.797 53.4405 167.797 53.4405Z" fill="#202020"/>
<path d="M169.916 52.5876L169.919 52.6074L170.069 52.6849L169.916 52.5876Z" fill="#202020"/>
<path d="M167.072 71.7508C166.809 71.8938 166.692 71.5884 166.394 71.7977C166.516 71.7782 166.905 71.9192 167.072 71.7508Z" fill="#202020"/>
<path d="M173.323 91.7485C173.323 91.7485 173.297 91.7223 173.284 91.7142C173.289 91.7438 173.301 91.752 173.323 91.7485Z" fill="#202020"/>
<path d="M166.393 71.7969L166.363 71.8218C166.374 71.8201 166.383 71.8085 166.393 71.7969Z" fill="#202020"/>
<path d="M168.61 79.2832C168.61 79.2832 168.526 79.327 168.483 79.3439C168.516 79.3386 168.547 79.3136 168.61 79.2832Z" fill="#202020"/>
<path d="M168.808 81.246L168.833 81.1914C168.833 81.1914 168.806 81.2361 168.808 81.246Z" fill="#202020"/>
<path d="M167.849 78.4525C167.849 78.4525 167.898 78.4043 167.849 78.3816C167.839 78.3833 167.829 78.3949 167.818 78.3967C167.862 78.3897 167.887 78.406 167.849 78.4525Z" fill="#202020"/>
<path d="M167.584 77.4298C167.584 77.4298 167.543 77.4566 167.52 77.4602L167.547 77.4863L167.583 77.4199L167.584 77.4298Z" fill="#202020"/>
<path d="M166.643 56.7019C166.734 56.6976 166.839 56.7113 166.931 56.7169C166.708 56.6814 166.691 56.5018 166.643 56.7019Z" fill="#202020"/>
<path d="M173.453 91.6974C173.391 91.7376 173.347 91.7546 173.324 91.7482L173.36 91.7627C173.36 91.7627 173.432 91.7108 173.451 91.6875L173.453 91.6974Z" fill="#202020"/>
<path d="M164.77 64.522L164.74 64.4761C164.74 64.4761 164.745 64.5058 164.77 64.522Z" fill="#202020"/>
<path d="M165.225 78.3612C165.33 78.304 165.38 78.2557 165.418 78.2091C165.396 78.2126 165.372 78.2063 165.339 78.2116L165.236 78.3595L165.225 78.3612Z" fill="#202020"/>
<path d="M166.633 55.4178C166.556 55.5819 166.984 55.6052 167.203 55.6919C167.238 55.9092 166.873 55.7037 166.645 55.7095C166.704 55.8622 167.032 56.0532 166.987 56.1312C166.917 56.1221 166.896 56.1355 166.82 56.0869C167.093 56.2966 166.697 56.4708 167.046 56.7192C167.012 56.7246 166.977 56.72 166.942 56.7154C167.153 56.7428 167.355 56.7917 167.498 56.8297C167.476 56.9042 167.7 57.0204 167.431 56.9822C167.458 56.9373 167.351 56.9138 167.277 56.875L167.362 56.9829C166.969 56.9542 167.272 56.8454 166.998 56.7775C167.072 56.9581 167.317 57.2027 167.17 57.2868C166.794 57.2249 167.136 56.9986 166.758 57.0687L166.953 56.9264C166.333 56.9134 167.03 56.8332 166.371 56.7959C166.187 57.0073 166.466 57.1048 166.28 57.3064C166.468 57.4082 166.586 57.3591 166.774 57.4609C167.033 57.8654 165.751 57.5018 166.174 57.86C166.398 57.9762 166.854 58.1065 166.563 58.2234L166.162 58.0745C166.059 58.2932 166.729 58.3288 166.379 58.5058C166.23 58.4282 166.289 58.2973 166.236 58.3259C165.86 58.4059 166.445 58.4853 166.406 58.6027L166.031 58.5508C166.015 58.8066 166.213 59.1193 166.201 59.4047C166.093 59.3713 165.991 59.3064 165.859 59.3376C165.952 59.7076 165.594 60.0479 165.307 60.3363L165.599 60.5128C165.599 60.5128 165.442 60.5376 165.38 60.507C165.225 60.6125 165.581 60.546 165.697 60.6288C165.71 60.7078 165.49 60.6921 165.401 60.6354C165.626 60.9033 165.848 61.3642 165.443 61.5501L165.354 61.4933C165.186 61.6617 165.973 61.7899 165.628 61.9256L165.576 61.8833C165.35 62.2634 165.54 62.7395 165.008 62.996C165.472 63.1047 164.736 63.3733 165.393 63.4716C165.035 63.6701 164.919 63.5873 164.66 63.9018C164.616 63.9896 165.053 64.0723 165.105 64.1855L164.758 64.1596L165.095 64.3389L164.668 64.3865L164.742 64.4961C164.742 64.4961 164.913 64.4184 165.007 64.4339C165.138 64.6056 164.71 64.795 164.526 64.7937L164.761 65.1918C164.621 65.1735 164.588 65.1079 164.499 65.0512C164.82 65.2736 164.133 65.0585 164.429 65.2647C164.508 65.2523 164.629 65.2938 164.699 65.3029C164.471 65.3796 164.446 65.586 164.529 65.7451L164.293 65.7015C164.211 65.9778 164.364 66.2976 164.333 66.6063C164.453 66.4962 164.861 66.5428 164.898 66.6282L164.524 66.657C164.741 66.7239 164.67 66.5631 164.931 66.6938C164.879 66.8032 164.507 66.7611 164.392 66.6881L164.506 66.832C164.393 66.8398 164.341 66.7975 164.202 66.7891C164.43 66.8543 163.815 67.0226 164.209 67.1221L164.097 67.1399C164.066 67.4486 164.181 67.5924 164.186 67.8446C164.508 67.8543 164.42 67.9493 164.674 68.0306C164.566 68.2197 164.279 68.4273 164.315 68.6545C164.477 68.811 164.584 68.6928 164.767 68.765C164.483 68.7796 164.508 69.0086 164.295 68.8905C164.337 69.1572 164.35 69.2362 164.597 69.5715C164.717 69.5323 164.767 69.4839 164.862 69.5093C164.907 69.5731 164.747 69.649 164.599 69.6523L164.573 69.6361C165.008 69.9925 163.747 70.557 164.352 70.8357L164.326 70.8194L164.647 71.1127C164.602 71.2616 164.429 71.036 164.253 71.155C164.748 71.4612 164.18 71.7032 164.541 71.9598C163.718 72.2524 164.686 72.7266 164.18 73.0702L164.38 73.0383C164.583 73.0872 164.27 73.1368 164.233 73.1933C164.39 73.1685 164.401 73.0958 164.521 73.1275C164.835 73.7358 164.381 74.4861 164.274 75.1815C164.269 75.4355 165.333 75.1451 164.924 75.5239L164.543 75.5034C165.087 75.9031 164.744 76.4839 165.219 76.8844C165.127 76.8788 165.015 76.8965 165.008 76.8471C164.768 76.9965 165.067 77.2224 165.287 77.1673C165.277 77.2498 165.091 77.2288 164.998 77.2941C164.859 77.4275 165.392 77.4646 165.135 77.5762C165.092 77.5932 165.042 77.5706 165.017 77.5544C165.16 77.5924 165.054 77.8624 165.343 77.7355C165.239 77.9444 165.551 78.0367 165.409 78.2213C165.764 78.2256 165.314 78.5603 165.803 78.4725C165.294 78.5836 165.49 78.8766 165.761 78.9248C165.601 78.9298 165.633 79.0565 165.417 79.0704C165.471 79.1934 165.6 79.2844 165.838 79.196C165.327 79.5809 166.462 79.5223 165.76 79.8565C166.149 80.149 166.445 80.4261 166.663 80.7156C166.17 80.8545 166.493 80.3678 165.983 80.54C166.286 80.7955 166.763 80.8414 166.759 81.1762C166.717 81.274 166.534 81.2018 166.441 81.1962C166.744 81.4419 166.607 81.8078 166.957 81.9952C166.913 82.0023 166.855 82.0013 166.806 81.9787C166.836 82.0246 166.785 82.134 167 82.0492L166.927 82.0203C167.205 81.8243 167.668 82.0039 167.842 81.946C167.177 82.0819 167.811 82.2547 166.953 82.4009C167.014 82.4217 167.128 82.4237 167.28 82.3693C167.267 82.4321 167.184 82.4858 166.991 82.4961C167.196 82.6357 167.402 82.4916 167.475 82.6623C167.367 82.6998 167.319 82.6871 167.185 82.7084C167.427 82.7206 167.679 82.7211 167.65 82.8979C167.583 82.9085 167.511 82.9604 167.494 82.9227C167.644 83.1519 168.236 83.1289 168.163 83.4644C167.675 83.5621 168.061 83.6123 167.676 83.7847L167.864 83.8865L168.025 83.7496C168.081 83.8825 168.411 83.8707 168.345 84.033L168.146 84.0038L168.338 84.2062L168.422 84.0107C168.68 84.0507 168.902 83.7927 168.878 83.9991C168.817 83.9783 168.932 84.1222 168.74 84.2842C168.89 84.2908 169.051 84.2957 169.004 84.4347C168.891 84.5134 168.573 84.6043 168.501 84.6562C168.855 84.5798 168.736 84.9125 169.113 84.8326C169.024 84.8467 168.819 84.9298 168.778 84.9566L169.065 84.8908C169.012 84.9903 168.971 85.0171 168.808 85.0733C168.839 85.2709 169.268 84.7979 169.155 85.0992C169.131 85.0929 169.088 85.1098 169.04 85.0972C169.035 85.3512 169.39 85.4264 169.382 85.6607C169.041 85.8969 169.192 85.549 168.905 85.7566C169.146 85.9815 169.711 86.0743 169.78 86.367L169.793 86.3042C170.34 86.0756 169.648 86.6207 169.98 86.6188C169.921 86.6079 169.666 86.7294 169.731 86.7089C169.766 86.9262 170.086 86.9969 170.422 87.1663L170.265 87.1911C170.214 87.3714 170.373 87.5082 170.384 87.6482C170.537 87.6037 170.561 87.6809 170.722 87.5439C170.189 88.2968 171.542 87.9505 171.108 88.6066C171.079 88.5706 170.933 88.5838 170.961 88.6197L171.243 88.8079C171.448 88.654 171.352 88.6996 171.499 88.5446C171.652 88.5 171.802 88.5067 171.835 88.5722C171.614 88.5466 171.479 88.7806 171.396 88.9052C171.457 88.8551 171.544 88.831 171.605 88.7809C171.296 89.1437 172.059 88.5368 171.917 88.8731L171.79 88.9339C171.896 88.9574 172.097 88.9256 172.123 89.0127C171.888 89.1917 171.952 89.0195 171.743 89.1438C171.837 89.2302 172.379 89.0428 172.198 89.274C172.096 89.2801 172.041 89.218 171.939 89.2241C171.719 89.5019 171.806 89.4679 171.821 89.5667L171.82 89.5568L171.824 89.7992L171.867 89.7113C172.622 89.4194 172.192 89.8826 172.745 89.7644C172.213 89.8691 172.49 89.8859 172.196 90.054C172.153 90.1419 172.114 90.2594 172.017 90.2951C172.304 90.2293 171.941 90.5399 172.37 90.4313C172.289 90.4949 172.431 90.523 172.188 90.6526C172.346 90.7086 172.329 90.5291 172.444 90.4602C172.882 90.4109 172.369 91.0695 172.976 91.0035C173.308 91.0724 173.635 90.899 173.922 90.975C173.832 91.131 173.561 91.1537 173.561 91.1537C173.51 91.334 173.599 91.3908 173.774 91.4136C173.688 91.4475 173.63 91.5174 173.553 91.6106C173.631 91.6691 173.914 91.4318 173.864 91.622C173.759 91.6792 173.578 91.7686 173.457 91.798C173.61 91.8243 173.846 91.797 173.988 91.8251C173.86 91.9568 173.709 91.9403 173.589 91.9796C173.734 92.0274 173.946 92.1356 174.209 91.9926L174.246 91.8652C174.246 91.8652 174.056 92.0371 173.987 92.0379C173.732 92.0885 173.959 91.8601 174.05 91.7849L174.157 91.8085C174.616 91.3813 173.864 91.622 173.795 91.4711L174.208 91.2637L173.788 91.3607C173.865 91.2675 174.055 91.0956 174.162 91.1191C174.276 90.8986 173.958 91.1313 174.107 90.9153C174.136 90.8803 174.158 90.8768 174.18 90.8732L173.996 90.8621C174.093 90.8264 174.25 90.6598 174.241 90.7522C174.33 90.4445 173.752 90.6982 173.987 90.4483L174.021 90.443C173.715 90.3193 173.727 90.6111 173.267 90.6738L173.864 90.1034L173.57 90.2715C173.57 90.2715 173.556 90.1826 173.66 90.1155C173.403 90.1562 173.549 90.214 173.331 90.279C173.493 90.0002 172.965 90.0637 173.394 89.7424C173.147 89.8424 173.314 89.9577 173.07 89.9356C173.53 89.5892 172.874 89.8553 173.02 89.6196C173.296 89.4846 173.245 89.6649 173.378 89.4211C172.908 89.6373 173.315 89.1678 173.162 89.1415C172.817 89.3481 172.873 89.0556 172.646 88.9905C172.773 88.9297 172.621 88.6197 172.634 88.4151L172.698 88.3847C172.326 88.5652 172.309 88.3857 172.163 88.3279C172.372 88.2036 172.471 88.1778 172.597 88.1781L172.537 88.0864C172.406 88.1274 172.328 88.1398 172.251 88.0912L172.529 87.9661C172.43 87.8501 172.048 87.8906 172.119 87.6161C171.865 87.7475 171.516 88.147 171.239 88.0594C171.363 87.9788 171.593 87.8411 171.676 87.8583C171.654 87.8619 171.529 87.8715 171.565 87.8052L171.833 87.7626C171.878 87.6137 171.613 87.8178 171.6 87.7388C171.788 87.6279 171.707 87.6206 171.867 87.5446C171.889 87.5411 171.825 87.6424 171.913 87.6183C171.899 87.5294 171.968 87.3869 172.088 87.2767C171.984 87.3438 171.824 87.4198 171.773 87.3873C171.673 87.2615 171.975 87.2136 172.023 87.0845C171.87 87.129 171.959 86.9731 171.662 87.1214C171.645 87.0837 171.769 87.0032 171.84 86.9414C171.669 86.9482 171.6 86.6555 171.339 86.8892L171.344 86.9188C171.344 86.9188 171.322 86.9223 171.311 86.9241C170.877 86.8612 171.178 86.3781 170.914 86.2276L171.01 86.1821C170.815 86.1116 170.752 85.9293 170.479 85.9422C170.451 85.9062 170.6 85.7611 170.73 85.7201C170.595 85.6606 170.475 85.6998 170.543 85.4765C170.785 85.4887 170.674 85.3646 170.733 85.5173C170.739 85.3441 170.872 85.242 170.516 85.2377C170.802 85.162 170.774 84.9842 170.656 84.9624L170.534 85.1336C170.458 85.085 170.436 85.0176 170.423 84.9386L170.781 84.811C171.063 84.3512 169.836 84.6268 170.429 84.1075C170.159 84.1401 170.339 84.3343 170.028 84.3938C170.004 84.2457 170.441 83.893 170.423 83.8552C170.531 83.5952 169.847 83.906 169.89 83.6665C169.776 83.7452 169.458 83.907 169.283 83.8133C169.26 83.6651 169.716 83.4408 169.86 83.4788C169.887 83.5049 169.858 83.5399 169.815 83.5568C169.875 83.5776 169.961 83.6146 170.07 83.5062L169.936 83.5275C170.034 83.4209 169.938 83.2537 170.16 83.2084C169.993 83.1641 169.937 83.2438 169.908 83.3497C170.007 83.1112 169.787 83.0954 169.833 82.8756C169.772 82.9258 169.649 83.0161 169.633 82.9883C169.664 82.6796 169.345 82.9733 169.206 82.8231C169.35 82.6484 169.675 82.6778 169.43 82.575C169.509 82.4208 169.75 82.4231 169.875 82.4233C169.557 82.3625 169.889 82.0769 169.896 81.9746L170.039 82.0126C169.955 81.9855 169.937 81.9478 169.92 81.91L169.69 82.0478C169.714 81.9832 169.697 81.9455 169.794 81.9098C169.601 81.9201 169.401 82.1037 169.124 82.0869C169.221 81.9803 168.895 81.941 169.216 81.799C169.196 82.035 169.536 81.657 169.673 81.7973C169.613 81.7765 169.595 81.7388 169.619 81.6742C169.65 81.6492 169.697 81.6618 169.72 81.6583C169.925 81.3625 169.305 81.7139 169.215 81.5055C169.414 81.4638 169.553 81.3303 169.494 81.3194C169.529 81.3949 169.197 81.4678 169.022 81.445C169.118 81.2576 168.868 81.3378 168.857 81.2687L168.817 81.3763C168.616 81.4082 168.616 81.3373 168.525 81.2707C168.664 81.2081 168.659 81.3203 168.707 81.2621C168.342 81.2694 168.972 80.9162 168.698 80.8483C168.807 80.7399 169.056 80.7207 169.123 80.6392C168.825 80.5649 169.323 80.3847 169.067 80.2836C168.824 80.4132 168.891 80.4026 168.598 80.358L168.873 80.5776L168.441 80.5246C168.466 80.6117 168.667 80.6508 168.632 80.7171C168.39 80.7049 168.455 80.6844 168.267 80.7953C168.607 80.5591 167.967 80.6403 168.173 80.4253L168.805 80.2238C169.023 79.9362 168.353 79.9715 168.431 79.6656L168.346 79.7803C168.078 79.8228 168.254 79.6329 168.12 79.5833C168.34 79.5281 168.396 79.4483 168.522 79.3777C168.371 79.4321 168.469 79.1837 168.038 79.2824L168.281 79.0819C168.323 78.8423 167.583 79.0104 167.593 78.786C167.845 78.7866 167.973 78.6549 168.181 78.7433C168.17 78.6742 168.182 78.6015 168.029 78.646C168.155 78.5754 167.68 78.5394 167.855 78.4204C167.752 78.4166 167.52 78.4735 167.518 78.3829C167.561 78.3659 167.628 78.3553 167.628 78.3553C167.518 78.3829 167.443 78.2732 167.223 78.3993C167.815 78.0218 167.027 77.8127 167.558 77.4854C167.457 77.3496 167.339 77.186 167.295 77.0513C167.362 77.0407 167.407 77.0336 167.387 77.0569C167.544 76.8194 166.738 77.0788 166.913 76.8081C167.239 76.6248 167.131 76.8849 167.241 76.7864C167.956 76.6021 167.089 76.5473 167.476 76.3139L167.525 76.3364C167.741 76.1807 167.194 76.1257 167.209 75.931C167.209 75.931 167.276 75.9203 167.32 75.9132C166.924 75.8648 166.752 75.649 166.612 75.489C166.91 75.4923 166.781 75.5432 167.065 75.4576C167.008 75.3857 166.612 75.5599 166.498 75.416C166.644 75.332 166.75 75.2038 167.06 75.1345L167.105 75.2791C167.484 75.1381 167.053 75.095 167.108 75.0054L167.286 74.977C167.185 74.7704 166.738 74.8412 166.744 74.5872L166.614 74.6381C166.168 74.5671 166.843 74.4905 166.508 74.4018L166.949 74.2915C166.834 74.2185 166.485 74.0409 166.382 73.8953C166.722 73.9427 166.908 74.1056 167.116 74.194C167.102 74.1051 167.047 73.9012 166.827 73.8855C166.878 73.9179 166.985 73.9415 166.924 73.9916C166.561 73.9379 166.381 73.8145 166.364 73.635C167.222 73.5596 166.526 73.1435 167.18 72.9384C166.829 72.6702 167.252 72.3094 167.151 71.9609C166.494 72.1462 167.123 71.8541 166.439 71.9423C166.38 71.8605 166.398 71.8274 166.442 71.8203L166.831 71.5258C167.025 71.4544 166.99 71.5917 167.148 71.5768C167.186 71.3884 167.441 71.4796 167.614 71.3408C167.368 71.3798 167.265 71.3051 167.35 71.1904L167.033 71.362C166.664 71.1269 167.61 71.0985 167.241 70.8634L167.457 70.9303C167.324 70.8097 167.46 70.4438 166.894 70.3412C166.969 70.309 167.158 70.269 167.213 70.3311C167.289 70.0153 166.613 69.6468 166.95 69.3908L167.114 69.4154C167.06 69.3632 166.802 69.3231 166.961 69.2472C167.03 69.2464 167.125 69.2718 167.143 69.2386C167.081 69.208 166.844 69.0836 166.946 69.0066L167.139 69.0672C167.364 68.758 166.652 68.5976 166.565 68.338C167.058 68.3409 167.236 68.0899 167.332 67.9735L167.402 67.9826C167.494 67.6238 167.041 67.3715 166.872 67.0238C167.426 66.8347 167.15 66.3216 167.477 66.0063C167.382 66.0519 167.095 65.9759 167.05 65.9121C167.153 65.8351 166.727 65.6798 167.178 65.7095L167.183 65.7391C167.614 65.7113 167.519 65.5442 167.544 65.4186L166.951 65.3607C167.859 65.0952 166.764 64.4691 167.57 64.3514C167.43 64.2623 167.447 64.1582 167.319 64.0673L167.633 64.0984C167.748 63.8878 167.801 63.7883 167.768 63.5099L167.986 63.5867C168.031 63.4378 167.105 63.3012 167.104 63.1495L167.587 63.164C167.614 62.8966 168.105 62.6768 167.735 62.361C167.805 62.3701 167.935 62.4 167.943 62.4494C167.98 62.322 168.367 62.0177 167.718 61.9687C168.139 62.0235 167.824 61.6988 167.672 61.5306L167.968 61.595C167.608 61.4192 167.501 61.3956 167.425 61.2052C167.477 61.1667 167.677 61.2057 167.593 61.2495C167.781 61.1386 167.329 61.0991 167.525 60.9666L167.711 61.0586C167.771 60.9277 167.654 60.9157 167.443 60.8076C167.334 60.7032 167.574 60.5539 167.864 60.5787C167.697 60.5344 167.483 60.4163 167.587 60.3492C167.691 60.3531 167.755 60.3936 167.782 60.4197C168.06 60.2237 167.523 60.0152 167.872 59.9092C167.978 59.9228 168.024 59.9256 168.057 59.9203C167.995 60.1024 167.937 60.2432 167.922 60.2252C168.205 60.2716 168.297 60.1354 168.648 60.3228C168.474 60.168 168.064 59.8889 168.239 59.7699C168.273 59.7646 168.295 59.7611 168.343 59.7737L168.369 59.7899C168.369 59.7899 168.393 59.7254 168.353 59.6912C168.415 59.6509 168.458 59.634 168.474 59.5909C168.709 59.6246 168.647 59.4522 168.681 59.3759C168.375 59.3232 168.451 59.23 168.172 59.2743C168.195 59.2708 168.21 59.2986 168.207 59.3498C168.209 59.3597 168.212 59.3794 168.225 59.3875L168.202 59.3911C168.202 59.3911 168.184 59.4952 168.171 59.558C168.031 59.4688 167.915 59.386 168.113 59.3343C167.928 59.2523 167.744 59.1702 167.647 59.135C168.103 59.1234 168.388 58.9768 168.656 59.0052C168.547 58.7492 168.696 58.4623 168.161 58.1927C168.113 58.1092 168.351 58.1626 168.451 58.1467C168.494 58.2006 168.465 58.2356 168.551 58.2726C168.447 58.1171 168.627 57.8859 168.242 57.7648C168.475 57.6468 168.579 57.9441 168.588 57.7099L168.699 57.7631C169.481 57.4973 167.93 56.8118 168.907 56.5455C168.84 56.5562 168.821 56.5795 168.751 56.5703C169.299 56.129 168.858 55.3687 169.624 55.0042C169.8 54.8852 169.558 54.8021 169.407 54.6438L169.738 54.7127L169.444 54.4455C169.28 54.1373 170.386 54.3264 170.007 53.8803L169.783 53.8449C169.862 53.7616 169.807 53.4868 170.041 53.5914C170.003 53.5671 169.84 53.4815 169.966 53.4817L170.135 53.536L169.978 53.1963C170.184 53.0523 170.606 53.4715 170.771 53.2124C170.753 53.1038 170.447 52.7576 170.319 52.7474C170.29 52.7823 170.167 52.8018 170.01 52.7458L169.989 52.6174C169.521 52.4082 169.085 52.1129 168.613 52.2384C168.675 52.34 168.735 52.4316 168.808 52.5314L168.552 52.5013L168.608 52.3506C168.345 52.3518 168.513 52.4769 168.622 52.5813C168.491 52.5514 168.397 52.5359 168.331 52.5564L168.705 52.892C168.503 52.8431 168.374 52.6813 168.214 52.7572C168.388 52.912 168.673 52.8363 168.748 53.0169C168.485 53.0181 168.322 52.9325 168.462 53.0926C168.332 53.0627 168.266 53.0123 168.223 52.9583C168.325 53.0941 168.183 53.2077 168.409 53.3339C168.098 53.3225 168.354 53.6362 167.894 53.4764C167.995 53.5412 168.188 53.7436 168.167 53.8279C167.68 53.5002 168.005 54.1067 167.43 53.8739C167.873 54.1378 167.478 54.3219 167.683 54.6033C167.645 54.579 167.581 54.5384 167.602 54.525C167.514 54.62 167.352 54.6053 167.232 54.6445C167.643 54.7818 167.661 54.9712 167.883 55.1386C167.427 55.1502 167.424 54.9178 167.022 54.8397C167.357 54.9284 167.269 55.1652 167.56 55.1999C167.267 55.2262 167.407 55.2444 167.045 55.2006C167.563 55.3615 167.098 55.3138 167.378 55.4921C167.068 55.5614 166.869 55.3905 166.971 55.5971C166.781 55.6272 166.648 55.4358 166.648 55.4358L166.633 55.4178ZM166.284 59.422C166.284 59.422 166.275 59.3627 166.283 59.3412C166.286 59.3609 166.289 59.3807 166.284 59.422ZM166.199 59.7494C166.199 59.7494 166.242 59.6615 166.245 59.6104C166.351 59.6241 166.457 59.6476 166.451 59.679C166.389 59.6484 166.306 59.702 166.197 59.7395L166.199 59.7494ZM168.516 59.4932C168.548 59.5489 168.479 59.5496 168.411 59.5504C168.408 59.5306 168.403 59.501 168.397 59.4615L168.36 59.4471C168.36 59.4471 168.468 59.4805 168.505 59.4949L168.516 59.4932Z" fill="#202020"/>
<path d="M168.147 59.3285C168.147 59.3285 168.132 59.3105 168.131 59.3006C168.097 59.3059 168.075 59.3094 168.053 59.313L168.139 59.35L168.134 59.3203L168.147 59.3285Z" fill="#202020"/>
<path d="M171.325 86.8711C171.325 86.8711 171.317 86.8926 171.297 86.9059C171.308 86.9042 171.317 86.8926 171.327 86.881L171.325 86.8711Z" fill="#202020"/>
<path d="M164.675 64.1415L164.756 64.1489L164.694 64.1182L164.675 64.1415Z" fill="#202020"/>
<path d="M171.362 88.9102C171.362 88.9102 171.322 88.9469 171.303 88.9702C171.326 88.9666 171.343 88.9334 171.362 88.9102Z" fill="#202020"/>
<path d="M171.786 89.5625L171.764 89.7077C171.786 89.6334 171.791 89.5921 171.786 89.5625Z" fill="#202020"/>
<path d="M172.046 90.1176C172.046 90.1176 172.131 90.0738 172.163 90.0586L172.046 90.1176Z" fill="#202020"/>
<path d="M166.83 81.9841C166.83 81.9841 166.828 81.9742 166.804 81.9679C166.731 81.939 166.758 81.9651 166.83 81.9841Z" fill="#202020"/>
<path d="M168.729 84.2857C168.66 84.2864 168.601 84.2755 168.554 84.2629C168.562 84.3122 168.568 84.3517 168.729 84.2857Z" fill="#202020"/>
<path d="M165.416 79.0606L165.427 79.0588L165.413 79.0408L165.416 79.0606Z" fill="#202020"/>
<path d="M168.499 84.1408C168.464 84.2071 168.493 84.2431 168.553 84.2639C168.547 84.2244 168.56 84.1616 168.499 84.1408Z" fill="#202020"/>
<path d="M173.643 92.2452L173.648 92.2749C173.648 92.2749 173.678 92.2499 173.689 92.2482L173.645 92.2551L173.643 92.2452Z" fill="#202020"/>
<path d="M173.69 92.2477L173.733 92.2407C173.733 92.2407 173.721 92.2326 173.69 92.2477Z" fill="#202020"/>
<path d="M173.85 92.2522L173.746 92.2483C173.746 92.2483 173.776 92.2942 173.85 92.2522Z" fill="#202020"/>
<path d="M173.231 91.5293L173.137 91.5847C173.137 91.5847 173.19 91.5561 173.231 91.5293Z" fill="#202020"/>
<path d="M173.046 91.3676C173.055 91.4268 172.948 91.6159 173.054 91.6395L173.128 91.5975C172.967 91.6636 173.23 91.3079 173.046 91.3676Z" fill="#202020"/>
<path d="M173.554 89.8078L173.609 90.0117C173.686 89.9185 173.791 89.7904 173.869 89.849C174.002 89.4633 173.682 90.0406 173.554 89.8078Z" fill="#202020"/>
<path d="M173.304 89.2413C173.415 89.2945 173.449 89.1474 173.513 89.117C173.377 89.1284 173.342 89.1238 173.304 89.2413Z" fill="#202020"/>
<path d="M170.792 85.6L171.06 85.4866C170.983 85.438 170.964 85.5321 170.792 85.6Z" fill="#202020"/>
<path d="M169.003 85.5077L168.878 85.6591L169.14 85.5772C169.14 85.5772 169.052 85.5303 169.003 85.5077Z" fill="#202020"/>
<path d="M170.641 84.2148L170.7 84.2257L170.539 84.1499L170.641 84.2148Z" fill="#202020"/>
<path d="M167.901 77.552L167.563 77.6562C167.638 77.695 168.025 77.6133 167.901 77.552Z" fill="#202020"/>
<path d="M166.891 74.5736C167.065 74.5156 167.162 74.4091 166.985 74.3763C166.974 74.449 166.84 74.5411 166.891 74.5736Z" fill="#202020"/>
<path d="M167.373 65.2021L167.476 65.2768L167.4 65.1573L167.373 65.2021Z" fill="#202020"/>
</g>
</svg>
